<?xml version="1.0" encoding="UTF-8"?> <svg xmlns="http://www.w3.org/2000/svg" width="97" height="16" viewBox="0 0 97 16" fill="none"><path fill-rule="evenodd" clip-rule="evenodd" d="M24 12.7861C24 13.1153 23.669 13.3622 23.3379 13.1976L8.27586 4.55625L11.0897 2.99257C11.3664 2.83366 11.6804 2.75 12 2.75C12.3196 2.75 12.6336 2.83366 12.9103 2.99257L23.7517 9.16497C23.7517 9.16497 24 9.30107 24 9.65876C24 10.0165 24 12.7861 24 12.7861ZM0.662069 13.1976C0.331034 13.3622 0 13.1153 0 12.7861V9.65876C0 9.57647 0 9.32957 0.248276 9.16497L6.78621 5.37923L10.5103 7.519L0.662069 13.1976Z" fill="#0E2A63"></path><path d="M32 15.8321V0.251303H34.8736V13.4866H42.2265V15.8321H32ZM48.8188 4.77476C50.3401 4.77476 51.5234 5.10983 52.1995 5.86374C52.9601 6.61765 53.3827 7.70663 53.3827 9.29822V15.8321H50.6782V14.1567C50.4246 14.7431 50.0021 15.2457 49.495 15.497C48.9879 15.8321 48.3117 15.9996 47.6356 15.9996C46.8749 15.9996 46.1988 15.8321 45.6072 15.5808C45.0156 15.2457 44.593 14.9107 44.2549 14.3243C43.9169 13.8217 43.6633 13.2353 43.6633 12.6489C43.6633 11.8113 43.9169 11.2249 44.3394 10.7223C44.762 10.3034 45.3536 9.96836 46.2833 9.71706C47.213 9.54952 48.4808 9.46575 50.1711 9.46575H50.6782V8.96315C50.6782 8.20924 50.5092 7.70663 50.1711 7.37156C49.9175 7.03649 49.3259 6.86895 48.6498 6.86895L46.7904 7.12026L44.9311 7.95794L44.1704 6.11505C45.5609 5.24166 47.1727 4.77692 48.8188 4.77476ZM48.1427 13.9892C48.9033 13.9892 49.495 13.7379 50.0021 13.3191C50.4246 12.8165 50.6782 12.1463 50.6782 11.3924V10.8898H50.2556L47.9737 11.0573C47.382 11.1411 47.044 11.3086 46.7904 11.4762C46.5369 11.7275 46.4524 12.0626 46.4524 12.3976C46.4524 12.9002 46.6214 13.2353 46.9595 13.5704C47.213 13.9054 47.6356 13.9892 48.1427 13.9892ZM62.5105 4.77476C63.8628 4.77476 64.7925 5.10983 65.4686 5.86374C66.0602 6.61765 66.3983 7.70663 66.3983 9.21445V15.8321H63.6093V9.38199C63.6093 8.54431 63.4402 7.87417 63.1022 7.5391C62.8486 7.12026 62.3415 6.95272 61.6654 6.95272C60.8202 6.95272 60.1441 7.20403 59.7215 7.70663C59.2144 8.20924 58.9608 8.87938 58.9608 9.71706V15.8321H56.1718V5.02606H58.8763V6.61765C59.2989 6.03128 59.806 5.52867 60.3976 5.27737C60.9892 4.9423 61.7499 4.77476 62.5105 4.77476ZM79.7519 0.251303V15.8321H77.0474V14.073C76.7093 14.6594 76.2022 15.162 75.6106 15.497C74.9345 15.8321 74.2584 15.9996 73.4977 15.9996C72.6062 16.0108 71.7308 15.7629 70.9798 15.2865C70.2288 14.8101 69.6351 14.1262 69.2719 13.3191C68.8493 12.4814 68.5957 11.4762 68.5957 10.3034C68.5957 9.21445 68.8493 8.20924 69.2719 7.37156C69.6945 6.53388 70.2016 5.86374 70.9622 5.4449C71.7229 5.02606 72.568 4.77476 73.4977 4.77476C74.2584 4.77476 74.9345 4.9423 75.6106 5.27737C76.2022 5.52867 76.6248 6.03128 76.9629 6.61765V0.251303H79.7519ZM74.2584 13.9054C75.1035 13.9054 75.7797 13.5704 76.2868 12.984C76.7939 12.3976 77.0474 11.4762 77.0474 10.3872C77.0474 9.21445 76.7939 8.37677 76.2868 7.7904C75.7797 7.20403 75.1035 6.86895 74.2584 6.86895C73.3287 6.86895 72.6525 7.20403 72.1454 7.7904C71.6383 8.37677 71.3848 9.21445 71.3848 10.3034C71.3848 11.4762 71.6383 12.3139 72.1454 12.9002C72.6525 13.5704 73.3287 13.9054 74.2584 13.9054ZM82.6255 15.8321V5.02606H85.4146V15.8321H82.6255ZM82.4565 0H85.5836V2.68057H82.4565V0ZM92.3449 15.9996C91.4153 15.9996 90.4856 15.9159 89.6404 15.6646C88.8798 15.4133 88.2036 15.0782 87.612 14.6594L88.3727 12.7327C89.5559 13.5704 90.9082 13.9892 92.3449 13.9892C93.0211 13.9892 93.5282 13.9054 93.8662 13.6541C94.2043 13.4866 94.3733 13.1515 94.3733 12.8165C94.3733 12.4814 94.2043 12.2301 94.0353 12.0626L92.7675 11.5599L90.9927 11.1411C89.9785 10.8898 89.2178 10.5547 88.7107 10.0521C88.2036 9.54952 87.9501 8.87938 87.9501 8.12547C87.9501 7.45533 88.2036 6.86895 88.5417 6.36635C88.9643 5.86374 89.4714 5.4449 90.1475 5.1936C91.2268 4.81583 92.3823 4.70232 93.5155 4.86277C94.6486 5.02321 95.7259 5.45285 96.6553 6.11505L95.8946 7.95794C94.9226 7.22007 93.7381 6.8092 92.514 6.78519C91.8378 6.78519 91.4153 6.86896 91.0772 7.12026C90.7391 7.28779 90.5701 7.62286 90.5701 8.0417L90.8236 8.79561C91.0772 8.96315 91.4153 9.13068 91.9224 9.21445L93.7817 9.63329C94.7959 9.88459 95.6411 10.2197 96.1482 10.7223C96.6553 11.2249 96.9088 11.895 96.9088 12.7327C96.9088 13.7379 96.4863 14.5756 95.6411 15.162C94.8804 15.7483 93.7817 15.9996 92.3449 15.9996Z" fill="#0E2A63"></path></svg> 