<svg role="none" id="Layer_1" xmlns="http://www.w3.org/2000/svg" viewBox="0 0 150 60" width="150" height="60">
<style type="text/css" media="all">.st0{fill:#FFF}</style> <g> <path class="st0" d="M14.7,0.3H10c-0.2,0-0.3,0.1-0.4,0.3l-3,16l9.6-9.7l-1.2-6.4C14.9,0.4,14.8,0.3,14.7,0.3"></path> <path class="st0" d="M19.6,25.2l-18,18.3c0,0.1,0,0.2,0,0.3L12,59.5c0.1,0.2,0.5,0.2,0.6,0l10.3-15.7c0-0.1,0.1-0.2,0-0.3L19.6,25.2z"></path> <polygon class="st0" points="16.8,10.3 5.6,21.5 2.5,38.7 19,21.9 "></polygon> <path class="st0" d="M46,20v13.6c0,2.1-0.2,3.7-0.5,4.5c-0.3,0.9-0.9,1.5-1.8,2.1c-0.8,0.5-1.8,0.8-3,0.8c-2.3,0-4.4-1-6-3l2.9-2.6c0.6,0.7,1.2,1.2,1.6,1.4c0.4,0.2,0.9,0.3,1.3,0.3c0.4,0,0.7-0.2,1-0.5c0.2-0.3,0.3-1.1,0.3-2.3V20H46z"></path> <path class="st0" d="M60.6,25.8c1.2,0.7,2.2,1.7,2.9,2.9c0.7,1.2,1,2.5,1,4c0,1.4-0.3,2.8-1,4c-0.7,1.2-1.6,2.2-2.8,2.9c-1.2,0.7-2.5,1-4,1c-2.1,0-4-0.8-5.5-2.3S49,34.9,49,32.7c0-2.4,0.8-4.3,2.6-5.9c1.5-1.4,3.2-2,5.2-2C58.1,24.7,59.4,25.1,60.6,25.8 M53.8,29.5c-0.8,0.8-1.1,1.9-1.1,3.1c0,1.3,0.4,2.4,1.1,3.2c0.7,0.8,1.7,1.2,2.9,1.2c1.2,0,2.1-0.4,2.9-1.2c0.8-0.8,1.1-1.9,1.1-3.2s-0.4-2.3-1.1-3.2c-0.7-0.8-1.7-1.2-2.9-1.2C55.6,28.3,54.6,28.7,53.8,29.5"></path> <path class="st0" d="M71,26.8c0.6-0.7,1.3-1.2,2.1-1.5c0.7-0.3,1.5-0.5,2.4-0.5c1.9,0,3.5,0.7,4.8,2.2c1.3,1.4,2,3.4,2,5.7c0,2.2-0.7,4.1-2,5.6c-1.3,1.5-2.9,2.2-4.8,2.2c-0.8,0-1.6-0.1-2.3-0.4c-0.7-0.3-1.4-0.8-2.1-1.5v1.6h-3.6V19.4H71L71,26.8L71,26.8z M72,29.4c-0.8,0.8-1.1,1.9-1.1,3.2c0,1.3,0.4,2.4,1.1,3.3c0.8,0.8,1.7,1.2,2.9,1.2c1.1,0,2.1-0.4,2.9-1.2c0.8-0.8,1.2-1.9,1.2-3.2s-0.4-2.4-1.1-3.2c-0.7-0.8-1.7-1.2-2.9-1.2C73.8,28.2,72.8,28.6,72,29.4"></path> <path class="st0" d="M92.2,29.5c-0.9-0.9-1.8-1.4-2.6-1.4c-0.4,0-0.7,0.1-1,0.2c-0.2,0.2-0.3,0.4-0.3,0.7c0,0.2,0.1,0.4,0.2,0.5c0.1,0.1,0.5,0.4,1.1,0.7l1.4,0.7c1.4,0.7,2.4,1.4,3,2.2c0.5,0.7,0.8,1.6,0.8,2.6c0,1.3-0.5,2.5-1.4,3.4c-1,0.9-2.3,1.3-3.9,1.3c-2.2,0-3.9-0.8-5.2-2.6l2.3-2.5c0.4,0.5,0.9,0.9,1.5,1.2c0.6,0.3,1.1,0.5,1.6,0.5c0.5,0,0.9-0.1,1.2-0.3c0.3-0.2,0.4-0.5,0.4-0.8c0-0.6-0.5-1.1-1.6-1.7l-1.2-0.6c-2.4-1.2-3.6-2.8-3.6-4.6c0-1.2,0.4-2.2,1.3-3.1c0.9-0.8,2.1-1.3,3.5-1.3c0.9,0,1.9,0.2,2.7,0.6s1.6,1,2.2,1.8L92.2,29.5z"></path> <path class="st0" d="M108.9,29.9c-0.6-0.6-1.1-1-1.7-1.3c-0.5-0.2-1.2-0.3-2-0.3c-1.4,0-2.5,0.4-3.4,1.3c-0.8,0.8-1.3,1.9-1.3,3.3c0,1.3,0.4,2.3,1.2,3.2c0.8,0.8,1.9,1.2,3.3,1.2c1.7,0,3-0.6,3.9-1.7l2.9,2c-1.6,2.1-3.9,3.1-6.8,3.1c-2.6,0-4.7-0.8-6.2-2.4s-2.2-3.4-2.2-5.5c0-1.4,0.3-2.8,1.1-4c0.7-1.2,1.7-2.2,3-2.9c1.3-0.7,2.7-1,4.3-1c1.5,0,2.8,0.3,4,0.9s2.1,1.4,2.9,2.5L108.9,29.9z"></path> <path class="st0" d="M129.6,25.1v15H126v-1.6c-0.7,0.7-1.4,1.2-2.1,1.5c-0.7,0.3-1.5,0.4-2.3,0.4c-1.8,0-3.4-0.7-4.8-2.2c-1.3-1.5-2-3.4-2-5.6c0-2.3,0.6-4.2,1.9-5.7c1.3-1.5,2.9-2.2,4.8-2.2c0.8,0,1.6,0.1,2.4,0.5c0.7,0.3,1.4,0.8,2.1,1.5v-1.6L129.6,25.1L129.6,25.1z M119.3,29.4c-0.7,0.8-1.1,1.9-1.1,3.2c0,1.3,0.4,2.4,1.2,3.2c0.8,0.8,1.7,1.2,2.9,1.2c1.2,0,2.1-0.4,2.9-1.2c0.8-0.8,1.1-1.9,1.1-3.3c0-1.3-0.4-2.4-1.1-3.2c-0.8-0.8-1.7-1.2-2.9-1.2C121,28.2,120,28.7,119.3,29.4"></path> <path class="st0" d="M136.8,25.1v1.4c0.8-0.7,1.6-1.2,2.3-1.5c0.7-0.3,1.4-0.4,2.1-0.4c1.5,0,2.8,0.5,3.8,1.6c0.9,0.9,1.3,2.2,1.3,3.9v10h-3.6v-6.6c0-1.8-0.1-3-0.2-3.6c-0.1-0.6-0.4-1-0.8-1.3c-0.4-0.3-0.8-0.4-1.4-0.4c-0.7,0-1.3,0.2-1.9,0.8c-0.5,0.5-1,0.9-1.3,1.9c-0.1,0.4-0.4,1.3-0.4,2.9v6.4h-3.6v-15H136.8z"></path> </g> </svg>