<svg width="211" height="51" viewBox="0 0 211 51" fill="none" xmlns="http://www.w3.org/2000/svg">
<path d="M21.2714 21.4649V10.8781H10.5873V0.297363H0.000488281V31.1207C0.00612304 36.1055 1.98862 40.8846 5.51312 44.4097C9.03762 47.9347 13.8164 49.918 18.8012 49.9244H21.2592V39.3377H18.8012C16.6227 39.3377 14.5335 38.4723 12.9931 36.9319C11.4527 35.3915 10.5873 33.3022 10.5873 31.1238V21.4649H21.2714Z" fill="black"/>
<path d="M131.745 39.3225C131.18 39.3225 130.639 39.0981 130.239 38.6987C129.84 38.2994 129.616 37.7577 129.616 37.1929V0.297363H119.029V23.6431V40.7097C119.029 45.5772 122.795 49.6993 127.65 49.9153C127.787 49.9153 129.476 49.9153 129.616 49.9153H133.783V39.3225H131.745Z" fill="black"/>
<path d="M61.1331 15.4293C57.0991 11.2656 52.0288 9.18269 45.9222 9.18066C39.8743 9.18066 34.874 11.1449 30.9212 15.0734C26.9684 19.0018 24.9919 23.9363 24.9919 29.8766C24.9919 35.9245 26.941 40.9116 30.839 44.8381C34.7371 48.7645 39.7384 50.7277 45.8431 50.7277C50.8282 50.7277 55.1795 49.4409 58.897 46.8672C60.8497 45.5442 62.5385 43.8687 63.8771 41.9267C65.3006 39.7879 66.1924 37.34 66.4782 34.7867H55.4442L55.3894 35.0909C55.1806 36.149 54.7367 37.1466 54.0906 38.0102C53.4446 38.8737 52.6128 39.5811 51.6567 40.0801L51.611 40.1014C49.9902 40.8977 48.2022 41.2941 46.3967 41.2574C43.1517 41.2574 40.6054 40.4218 38.7578 38.7507C36.9425 37.155 35.8306 34.9071 35.6639 32.4959H66.6942C67.0126 25.2839 65.1589 19.5951 61.1331 15.4293ZM36.0624 25.3377C36.5918 23.0581 37.693 21.2673 39.3662 19.9652C41.0394 18.6631 43.1223 18.0131 45.6149 18.0152C47.6514 18.0062 49.64 18.6325 51.3038 19.807C53.0277 21.0036 54.1817 22.8471 54.7658 25.3377H36.0624Z" fill="black"/>
<path d="M113.592 39.2679C113.028 39.2679 112.486 39.0435 112.087 38.6442C111.687 38.2448 111.463 37.7031 111.463 37.1384V34.1418V10.8783H100.557V14.5137C99.4939 13.0818 97.9546 11.8355 95.9386 10.7748C93.8228 9.68872 91.4717 9.14118 89.0937 9.18071C83.8429 9.18071 79.4125 11.224 75.8024 15.3107C72.1924 19.3974 70.3884 24.2791 70.3904 29.9558C70.3904 35.6345 72.1944 40.5162 75.8024 44.6008C79.4104 48.6854 83.8409 50.7278 89.0937 50.7278C91.4715 50.7684 93.8225 50.2219 95.9386 49.1367C97.9566 48.074 99.4959 46.8267 100.557 45.3948L101.615 44.3027C102.27 45.8782 103.356 47.2363 104.75 48.2199C106.144 49.2034 107.788 49.7723 109.492 49.8608C109.628 49.8608 111.317 49.8608 111.457 49.8608H115.336V39.2679H113.592ZM98.6857 37.7468C96.8604 39.7627 94.4327 40.7707 91.4027 40.7707C88.3727 40.7707 85.9451 39.7627 84.1197 37.7468C82.2944 35.7308 81.3818 33.1308 81.3818 29.9466C81.3818 26.7625 82.2944 24.1624 84.1197 22.1465C85.9451 20.1305 88.3727 19.1226 91.4027 19.1226C94.4327 19.1226 96.8604 20.1326 98.6857 22.1526C100.511 24.1685 101.424 26.7686 101.424 29.9527C101.424 33.1369 100.511 35.7379 98.6857 37.7559V37.7468Z" fill="black"/>
<path fill-rule="evenodd" clip-rule="evenodd" d="M159.113 0.270023H186.179C189.891 0.267341 193.471 1.64593 196.222 4.13744C198.974 6.62895 200.699 10.0551 201.064 13.749C201.428 17.4429 200.405 21.1403 198.194 24.1213C197.186 25.4797 195.964 26.6451 194.588 27.5797H211L204.904 33.4754L210.964 39.3377H187.983V30.0661L187.971 30.0682L187.947 19.165C187.944 16.9705 187.072 14.8664 185.522 13.3133C183.972 11.7602 181.869 10.8845 179.675 10.8781H159.113V0.270023ZM159.097 31.0417V10.8781H148.508V31.4585C148.508 33.8835 148.985 36.2847 149.913 38.5251C150.841 40.7655 152.201 42.8012 153.916 44.5159C155.631 46.2306 157.667 47.5909 159.907 48.5189C162.147 49.4469 164.549 49.9245 166.974 49.9245H179.249C181.556 49.9213 183.768 49.0026 185.399 47.3702C187.029 45.7379 187.946 43.5251 187.946 41.2178V39.3377H167.381C165.183 39.3345 163.076 38.459 161.523 36.9036C159.97 35.3481 159.097 33.2398 159.097 31.0417ZM171.805 18.5709C171.177 19.5114 170.843 20.617 170.843 21.7478C170.843 23.263 171.445 24.7162 172.517 25.7877C173.588 26.8591 175.041 27.461 176.556 27.461C177.687 27.4616 178.793 27.1268 179.733 26.4989C180.674 25.8711 181.407 24.9783 181.84 23.9337C182.273 22.8891 182.387 21.7395 182.166 20.6303C181.946 19.5212 181.401 18.5024 180.602 17.7028C179.802 16.9032 178.783 16.3587 177.674 16.1382C176.565 15.9177 175.415 16.0312 174.371 16.4642C173.326 16.8972 172.433 17.6304 171.805 18.5709Z" fill="#005149"/>
</svg>
