<svg width="119" height="20" viewBox="0 0 119 20" fill="none" xmlns="http://www.w3.org/2000/svg">
<path fill-rule="evenodd" clip-rule="evenodd" d="M18.1125 4.55213C17.2534 4.1308 16.2881 3.89438 15.2679 3.89438C13.0014 3.89438 11.0058 5.06141 9.84293 6.83057C8.68006 5.06141 6.6845 3.89438 4.41792 3.89438C3.39775 3.89438 2.43249 4.1308 1.57334 4.55213C3.31785 1.81438 6.36971 0 9.84293 0C13.3162 0 16.368 1.81438 18.1125 4.55213ZM8.74927 10.355V19.5707C3.9312 19.0476 0.15856 15.0496 0 10.1403C0.112123 7.82731 2.02667 5.98634 4.37204 5.98634C6.78952 5.98634 8.74927 7.94225 8.74927 10.355ZM4.91187 13.1239C5.82318 13.1239 6.56195 12.3851 6.56195 11.4738C6.56195 10.5625 5.82318 9.82374 4.91187 9.82374C4.00056 9.82374 3.26179 10.5625 3.26179 11.4738C3.26179 12.3851 4.00056 13.1239 4.91187 13.1239ZM10.8982 10.355V19.5707C15.7163 19.0476 19.4889 15.0496 19.6475 10.1403C19.5354 7.82731 17.6208 5.98634 15.2754 5.98634C12.858 5.98634 10.8982 7.94225 10.8982 10.355ZM14.6972 13.1239C15.6086 13.1239 16.3473 12.3851 16.3473 11.4738C16.3473 10.5625 15.6086 9.82374 14.6972 9.82374C13.7859 9.82374 13.0472 10.5625 13.0472 11.4738C13.0472 12.3851 13.7859 13.1239 14.6972 13.1239Z" fill="white"/>
<path fill-rule="evenodd" clip-rule="evenodd" d="M110.678 8.65092V6.56022H106.312V6.60047L107.285 7.59155C107.404 7.72235 107.464 7.88837 107.464 8.08709V14.9542C107.464 15.1655 107.404 15.324 107.285 15.4297L106.312 16.3428V16.383H111.83V16.3428L110.857 15.4297C110.739 15.324 110.678 15.1655 110.678 14.9542V8.9313C111.111 8.36898 111.479 8.04849 112.084 8.04849C112.665 8.04849 113.142 8.30003 113.361 8.80312C113.551 9.24025 113.629 9.84583 113.625 10.6489C113.625 10.6489 113.628 14.9276 113.628 14.9735C113.628 15.1445 113.56 15.2955 113.429 15.4288L112.496 16.3419V16.3821H118.014V16.3419L117.04 15.4288C116.907 15.3106 116.842 15.1521 116.842 14.9534C116.842 13.9028 116.841 11.3274 116.841 10.5866C116.841 8.80312 116.606 8.25051 116.03 7.47246C115.502 6.75807 114.74 6.40088 113.749 6.40088C112.941 6.40088 112.362 6.61721 111.781 7.05489C111.21 7.48539 110.915 7.98067 110.678 8.65092Z" fill="white"/>
<path d="M100.51 16.6159C98.8927 16.6159 97.6178 16.1804 96.6831 15.3068C95.7483 14.4357 95.2822 13.167 95.2822 11.5008C95.2822 9.86243 95.7534 8.6039 96.6931 7.72521C97.6354 6.84906 98.9078 6.40845 100.51 6.40845C102.128 6.40845 103.405 6.84399 104.347 7.71762C105.287 8.58871 105.758 9.85737 105.758 11.5236C105.758 13.1619 105.285 14.4205 104.337 15.2992C103.39 16.1778 102.115 16.6159 100.51 16.6159ZM101.725 7.79612C101.46 7.12254 101.054 6.78828 100.513 6.78828C99.9685 6.78828 99.5654 7.11748 99.3008 7.77586C99.0363 8.43424 98.9028 9.67758 98.9028 11.5008C98.9028 13.3113 99.0363 14.5572 99.3008 15.2359C99.5654 15.9145 99.971 16.2538 100.513 16.2538C101.057 16.2538 101.46 15.9221 101.725 15.2561C101.989 14.5901 102.123 13.3443 102.123 11.521C102.12 9.71049 101.989 8.46969 101.725 7.79612Z" fill="white"/>
<path fill-rule="evenodd" clip-rule="evenodd" d="M92.1165 4.95027C93.0172 4.95027 93.7474 4.22009 93.7474 3.31937C93.7474 2.41865 93.0172 1.68848 92.1165 1.68848C91.2158 1.68848 90.4856 2.41865 90.4856 3.31937C90.4856 4.22009 91.2158 4.95027 92.1165 4.95027ZM89.3633 6.5601H93.7294V14.9541C93.7294 15.1654 93.7898 15.3239 93.908 15.4295L94.728 16.3426V16.3829H89.5168V16.3426L90.3368 15.4295C90.455 15.3239 90.5153 15.1654 90.5153 14.9541V8.08697C90.5153 7.88825 90.455 7.72223 90.3368 7.59143L89.3633 6.60035V6.5601Z" fill="white"/>
<path fill-rule="evenodd" clip-rule="evenodd" d="M89.0369 7.1111V7.07184L88.5623 6.59854H87.0606V3.30396H87.0204L84.2817 6.34132C84.1484 6.48721 83.9421 6.59854 83.6654 6.59854H82.7725V7.1111H83.8642V13.899C83.8642 15.7126 84.8336 16.6182 86.3657 16.6182C87.277 16.6182 87.9486 16.4018 88.419 15.9642C88.8618 15.5521 89.1486 15.0531 89.2793 14.4671H89.1843C88.9229 14.8704 88.5659 15.0712 88.1096 15.0712C87.7775 15.0712 87.521 14.9479 87.3348 14.7039C87.1512 14.4599 87.0581 14.1128 87.0581 13.6625V7.1111H89.0369Z" fill="white"/>
<path fill-rule="evenodd" clip-rule="evenodd" d="M81.4203 10.4026C81.4203 8.96255 80.9829 7.9415 80.263 7.32074C79.5595 6.71255 78.5718 6.40845 77.053 6.40845C75.5343 6.40845 74.3491 6.78543 72.5839 7.31024L75.1966 9.82752H75.541L75.5436 7.02418C75.673 6.90731 76.0467 6.85889 76.0467 6.85889C76.0467 6.85889 76.2769 6.79457 76.5172 6.79457C77.6392 6.79457 78.2044 7.54023 78.2044 9.06072V11.3228C77.6591 10.9659 76.9236 10.8255 75.9474 10.8255C74.9876 10.8255 74.145 11.0919 73.4197 11.6272C72.6971 12.1625 72.3345 12.8939 72.3345 13.8187C72.3345 14.6933 72.6153 15.3769 73.1743 15.872C73.7333 16.3671 74.4286 16.6159 75.2603 16.6159C75.9501 16.6159 76.5885 16.4856 77.112 16.1363C77.4382 15.9444 77.989 15.3162 78.2044 14.7356C78.2317 15.3438 78.4767 15.8322 78.895 16.1491C79.3133 16.4661 79.7215 16.5984 80.2434 16.6142C81.0262 16.6142 81.5826 16.4166 81.9663 16.0595C82.4083 15.6483 82.6398 15.0322 82.7709 14.4478H82.6763C82.3885 15.0234 82.235 15.0866 81.9472 15.0866C81.4578 15.0866 81.4195 14.4478 81.4195 14.4478V13.8483L81.4203 10.4026ZM75.6914 12.1703C75.9033 11.9343 76.287 11.6081 76.901 11.5697C76.901 11.5697 77.0545 11.5506 78.2044 11.5597V14.4478V14.4679C77.8745 14.9303 77.1888 15.1723 76.5572 15.1723C76.1836 15.1723 75.8426 15.024 75.6054 14.7275C75.3681 14.4309 75.2509 14.0162 75.2509 13.4884C75.2509 12.8928 75.3833 12.5548 75.6914 12.1703Z" fill="white"/>
<path d="M70.8 10.5873C70.8 11.6657 70.8004 14.7302 70.8004 14.9541C70.8004 15.1528 70.8658 15.3113 70.9991 15.4295L71.8191 16.3426V16.3829H66.6462V16.3426L67.3876 15.4295C67.5184 15.2962 67.5863 15.1453 67.5863 14.9742C67.5863 14.8891 67.5863 11.0325 67.5863 11.0325C67.5863 11.0325 67.5863 11.3775 67.5863 11.0322C67.5863 9.9577 67.6153 9.30694 67.3964 8.80385C67.1776 8.30077 66.7776 8.04922 66.1966 8.04922C65.5878 8.04922 65.172 8.33347 64.7369 8.90196C64.7369 8.90196 64.7369 14.7327 64.7369 14.9566C64.7369 15.1553 64.7972 15.3138 64.9155 15.432L65.7531 16.3451V16.3854H60.5325V16.3451L61.3323 15.432C61.4506 15.3138 61.5518 15.1686 61.5518 14.985C61.5518 14.9448 61.5518 11.0476 61.5518 11.0476C61.5518 10.0565 61.5808 9.30946 61.3695 8.80637C61.1582 8.30328 60.684 8.05174 60.1029 8.05174C59.5219 8.05174 59.1081 8.34353 58.7107 8.9246V14.9566C58.7107 15.1679 58.771 15.3264 58.8893 15.432L59.7092 16.3451V16.3854H54.5339V16.3451L55.3538 15.432C55.4721 15.3264 55.5324 15.1679 55.5324 14.9566V8.08695C55.5324 7.88823 55.4721 7.72222 55.3538 7.59141L54.3804 6.60033V6.56008H58.7082V8.66299C59.2515 7.15373 60.1878 6.40161 61.7474 6.40161C63.2416 6.40161 64.2767 7.1814 64.7018 8.74348C64.9408 8.05677 65.2357 7.49331 65.8167 7.05563C66.3978 6.61794 67.0153 6.40161 67.8228 6.40161C68.8138 6.40161 69.5376 6.7588 70.0659 7.47319C70.5966 8.18757 70.8 9.22645 70.8 10.5873Z" fill="white"/>
<path fill-rule="evenodd" clip-rule="evenodd" d="M53.8268 7.05563C53.4205 6.61794 52.9613 6.40161 52.3928 6.40161C51.7438 6.40161 51.3022 6.64005 50.8645 7.15068V7.19512L53.4818 9.82373H53.8268V7.05563ZM50.1391 6.55758V14.7151C50.1391 14.9139 50.2372 15.0799 50.4384 15.2057L52.2294 16.3376V16.3778H45.9264V16.3376L46.7464 15.4245C46.8646 15.3188 46.925 15.1604 46.925 14.9491V8.08445C46.925 7.88573 46.8646 7.72223 46.7464 7.58891L45.7729 6.59783V6.55758H50.1391Z" fill="white"/>
<path d="M39.956 16.6159C38.3385 16.6159 37.0636 16.1804 36.1289 15.3068C35.1941 14.4357 34.728 13.167 34.728 11.5008C34.728 9.86243 35.1992 8.6039 36.139 7.72521C37.0812 6.84906 38.3536 6.40845 39.956 6.40845C41.5735 6.40845 42.8509 6.84399 43.7932 7.71762C44.733 8.58871 45.2041 9.85737 45.2041 11.5236C45.2041 13.1619 44.7305 14.4205 43.7831 15.2992C42.8358 16.1778 41.5609 16.6159 39.956 16.6159ZM41.1704 7.79612C40.9059 7.12254 40.5002 6.78828 39.9585 6.78828C39.4143 6.78828 39.0112 7.11748 38.7466 7.77586C38.4821 8.43424 38.3486 9.67758 38.3486 11.5008C38.3486 13.3113 38.4821 14.5572 38.7466 15.2359C39.0112 15.9145 39.4168 16.2538 39.9585 16.2538C40.5027 16.2538 40.9059 15.9221 41.1704 15.2561C41.4349 14.5901 41.5685 13.3443 41.5685 11.521C41.566 9.71049 41.4349 8.46969 41.1704 7.79612Z" fill="white"/>
<path fill-rule="evenodd" clip-rule="evenodd" d="M32.6683 7.11106H34.2823V6.60101H32.6683V4.43961C32.6683 3.20956 32.9073 2.59328 33.3827 2.59328C33.4757 2.59328 33.5411 2.60837 33.5814 2.63352C33.6216 2.66119 33.6669 2.73414 33.7197 2.85237L34.9548 5.64953H34.995L36.3219 2.67377C35.2654 2.38198 34.2958 2.23608 33.2644 2.23608C32.0067 2.23608 31.0943 2.57567 30.4453 3.25735C29.7963 3.93652 29.4718 5.03828 29.4718 6.56012V6.60036H28.3965V7.09922H29.4718V7.11106V14.9541C29.4718 15.1529 29.4114 15.3113 29.2932 15.4296L28.4349 16.3427V16.3829H34.2831V16.3427L32.9676 15.3315C32.8343 15.2384 32.7513 15.1654 32.7186 15.1126C32.6859 15.0623 32.6683 14.9692 32.6683 14.8359V7.11106Z" fill="white"/>
</svg>
