<svg width="31" height="21" viewBox="0 0 31 21" fill="none" xmlns="http://www.w3.org/2000/svg">
<path d="M2.53409 5.09091H4.21023V16.7955C4.21023 17.4678 4.09422 18.0502 3.86222 18.5426C3.63494 19.035 3.2893 19.4162 2.82528 19.6861C2.366 19.956 1.78598 20.0909 1.08523 20.0909C1.02841 20.0909 0.971591 20.0909 0.914773 20.0909C0.857955 20.0909 0.801136 20.0909 0.744318 20.0909V18.5284C0.801136 18.5284 0.85322 18.5284 0.900568 18.5284C0.947917 18.5284 1 18.5284 1.05682 18.5284C1.56818 18.5284 1.94223 18.3769 2.17898 18.0739C2.41572 17.7756 2.53409 17.3494 2.53409 16.7955V5.09091ZM3.35795 3.27273C3.03125 3.27273 2.74953 3.16146 2.51278 2.93892C2.28078 2.71638 2.16477 2.44886 2.16477 2.13636C2.16477 1.82386 2.28078 1.55634 2.51278 1.33381C2.74953 1.11127 3.03125 1 3.35795 1C3.68466 1 3.96402 1.11127 4.19602 1.33381C4.43277 1.55634 4.55114 1.82386 4.55114 2.13636C4.55114 2.44886 4.43277 2.71638 4.19602 2.93892C3.96402 3.16146 3.68466 3.27273 3.35795 3.27273Z" fill="#76FA93"/>
<path d="M7.28018 20.0909V5.09091H8.8995V6.82386H9.09837C9.22147 6.63447 9.39193 6.39299 9.60973 6.09943C9.83227 5.80114 10.1495 5.53598 10.5614 5.30398C10.9781 5.06723 11.5415 4.94886 12.2518 4.94886C13.1703 4.94886 13.98 5.1785 14.6808 5.63778C15.3815 6.09706 15.9284 6.74811 16.3214 7.59091C16.7144 8.43371 16.9109 9.42803 16.9109 10.5739C16.9109 11.7292 16.7144 12.7306 16.3214 13.5781C15.9284 14.4209 15.3839 15.0743 14.6879 15.5384C13.9918 15.9976 13.1893 16.2273 12.2802 16.2273C11.5794 16.2273 11.0183 16.1113 10.5969 15.8793C10.1755 15.6425 9.85121 15.375 9.62393 15.0767C9.39666 14.7737 9.22147 14.5227 9.09837 14.3239H8.95632V20.0909H7.28018ZM8.92791 10.5455C8.92791 11.3693 9.04865 12.0961 9.29013 12.7259C9.53161 13.3509 9.88435 13.8409 10.3484 14.196C10.8124 14.5464 11.3806 14.7216 12.0529 14.7216C12.7537 14.7216 13.3384 14.5369 13.8072 14.1676C14.2807 13.7936 14.6358 13.2917 14.8725 12.6619C15.114 12.0275 15.2347 11.322 15.2347 10.5455C15.2347 9.77841 15.1164 9.08712 14.8796 8.47159C14.6476 7.85133 14.2949 7.36127 13.8214 7.00142C13.3526 6.63684 12.7631 6.45455 12.0529 6.45455C11.3711 6.45455 10.7982 6.62737 10.3342 6.97301C9.87015 7.31392 9.51977 7.79214 9.28303 8.40767C9.04628 9.01847 8.92791 9.73106 8.92791 10.5455Z" fill="#FFFD7E"/>
<path d="M20.0643 9.86364C20.0643 8.07386 20.2963 6.4285 20.7603 4.92756C21.229 3.42187 21.8967 2.03693 22.7631 0.772726H24.2404C23.8995 1.24148 23.5799 1.81913 23.2816 2.50568C22.988 3.1875 22.73 3.93797 22.5075 4.7571C22.2849 5.5715 22.1097 6.4143 21.9819 7.28551C21.8588 8.15672 21.7972 9.0161 21.7972 9.86364C21.7972 10.9905 21.9061 12.134 22.1239 13.294C22.3417 14.4541 22.6353 15.5312 23.0046 16.5256C23.3739 17.5199 23.7859 18.3295 24.2404 18.9545H22.7631C21.8967 17.6903 21.229 16.3078 20.7603 14.8068C20.2963 13.3011 20.0643 11.6534 20.0643 9.86364ZM30.2933 9.86364C30.2933 11.6534 30.0589 13.3011 29.5902 14.8068C29.1262 16.3078 28.4609 17.6903 27.5945 18.9545H26.1172C26.4581 18.4858 26.7753 17.9081 27.0689 17.2216C27.3672 16.5398 27.6276 15.7917 27.8501 14.9773C28.0727 14.1581 28.2455 13.313 28.3686 12.4418C28.4964 11.5658 28.5604 10.7064 28.5604 9.86364C28.5604 8.73674 28.4515 7.59328 28.2337 6.43324C28.0159 5.2732 27.7223 4.19602 27.353 3.2017C26.9837 2.20739 26.5717 1.39773 26.1172 0.772726H27.5945C28.4609 2.03693 29.1262 3.42187 29.5902 4.92756C30.0589 6.4285 30.2933 8.07386 30.2933 9.86364Z" fill="#76C1FF"/>
</svg>
