<svg width="81" height="21" viewBox="0 0 81 21" fill="none" xmlns="http://www.w3.org/2000/svg">
<path d="M2.53409 5.09091H4.21023V16.7955C4.21023 17.4678 4.09422 18.0502 3.86222 18.5426C3.63494 19.035 3.2893 19.4162 2.82528 19.6861C2.366 19.956 1.78598 20.0909 1.08523 20.0909C1.02841 20.0909 0.971591 20.0909 0.914773 20.0909C0.857955 20.0909 0.801136 20.0909 0.744318 20.0909V18.5284C0.801136 18.5284 0.85322 18.5284 0.900568 18.5284C0.947917 18.5284 1 18.5284 1.05682 18.5284C1.56818 18.5284 1.94223 18.3769 2.17898 18.0739C2.41572 17.7756 2.53409 17.3494 2.53409 16.7955V5.09091ZM3.35795 3.27273C3.03125 3.27273 2.74953 3.16146 2.51278 2.93892C2.28078 2.71638 2.16477 2.44886 2.16477 2.13636C2.16477 1.82386 2.28078 1.55634 2.51278 1.33381C2.74953 1.11127 3.03125 1 3.35795 1C3.68466 1 3.96402 1.11127 4.19602 1.33381C4.43277 1.55634 4.55114 1.82386 4.55114 2.13636C4.55114 2.44886 4.43277 2.71638 4.19602 2.93892C3.96402 3.16146 3.68466 3.27273 3.35795 3.27273Z" fill="#76FA93"/>
<path d="M8.50178 16.1136C8.1514 16.1136 7.85073 15.9882 7.59979 15.7372C7.34884 15.4863 7.22337 15.1856 7.22337 14.8352C7.22337 14.4848 7.34884 14.1842 7.59979 13.9332C7.85073 13.6823 8.1514 13.5568 8.50178 13.5568C8.85215 13.5568 9.15282 13.6823 9.40376 13.9332C9.65471 14.1842 9.78018 14.4848 9.78018 14.8352C9.78018 15.0672 9.721 15.2803 9.60263 15.4744C9.48899 15.6686 9.33511 15.8248 9.14098 15.9432C8.95159 16.0568 8.73852 16.1136 8.50178 16.1136ZM70.5526 9.86364C70.5526 8.07386 70.7846 6.4285 71.2486 4.92756C71.7173 3.42187 72.3849 2.03693 73.2514 0.772726H74.7287C74.3878 1.24148 74.0682 1.81913 73.7699 2.50568C73.4763 3.1875 73.2183 3.93797 72.9957 4.7571C72.7732 5.5715 72.598 6.4143 72.4702 7.28551C72.3471 8.15672 72.2855 9.0161 72.2855 9.86364C72.2855 10.9905 72.3944 12.134 72.6122 13.294C72.83 14.4541 73.1236 15.5312 73.4929 16.5256C73.8622 17.5199 74.2741 18.3295 74.7287 18.9545H73.2514C72.3849 17.6903 71.7173 16.3078 71.2486 14.8068C70.7846 13.3011 70.5526 11.6534 70.5526 9.86364ZM80.7816 9.86364C80.7816 11.6534 80.5472 13.3011 80.0785 14.8068C79.6145 16.3078 78.9492 17.6903 78.0827 18.9545H76.6055C76.9464 18.4858 77.2636 17.9081 77.5572 17.2216C77.8555 16.5398 78.1159 15.7917 78.3384 14.9773C78.561 14.1581 78.7338 13.313 78.8569 12.4418C78.9847 11.5658 79.0487 10.7064 79.0487 9.86364C79.0487 8.73674 78.9397 7.59328 78.7219 6.43324C78.5041 5.2732 78.2106 4.19602 77.8413 3.2017C77.4719 2.20739 77.06 1.39773 76.6055 0.772726H78.0827C78.9492 2.03693 79.6145 3.42187 80.0785 4.92756C80.5472 6.4285 80.7816 8.07386 80.7816 9.86364Z" fill="#76C1FF"/>
<path d="M12.788 20.0909V5.09091H14.4073V6.82386H14.6062C14.7293 6.63447 14.8997 6.39299 15.1175 6.09943C15.3401 5.80114 15.6573 5.53598 16.0692 5.30398C16.4859 5.06723 17.0494 4.94886 17.7596 4.94886C18.6781 4.94886 19.4878 5.1785 20.1886 5.63778C20.8893 6.09706 21.4362 6.74811 21.8292 7.59091C22.2222 8.43371 22.4187 9.42803 22.4187 10.5739C22.4187 11.7292 22.2222 12.7306 21.8292 13.5781C21.4362 14.4209 20.8917 15.0743 20.1957 15.5384C19.4996 15.9976 18.6971 16.2273 17.788 16.2273C17.0872 16.2273 16.5262 16.1113 16.1048 15.8793C15.6834 15.6425 15.359 15.375 15.1317 15.0767C14.9045 14.7737 14.7293 14.5227 14.6062 14.3239H14.4641V20.0909H12.788ZM14.4357 10.5455C14.4357 11.3693 14.5565 12.0961 14.7979 12.7259C15.0394 13.3509 15.3922 13.8409 15.8562 14.196C16.3202 14.5464 16.8884 14.7216 17.5607 14.7216C18.2615 14.7216 18.8462 14.5369 19.315 14.1676C19.7885 13.7936 20.1436 13.2917 20.3803 12.6619C20.6218 12.0275 20.7425 11.322 20.7425 10.5455C20.7425 9.77841 20.6242 9.08712 20.3874 8.47159C20.1554 7.85133 19.8027 7.36127 19.3292 7.00142C18.8604 6.63684 18.271 6.45455 17.5607 6.45455C16.8789 6.45455 16.306 6.62737 15.842 6.97301C15.378 7.31392 15.0276 7.79214 14.7908 8.40767C14.5541 9.01847 14.4357 9.73106 14.4357 10.5455ZM28.1857 16.2557C27.4944 16.2557 26.8671 16.1255 26.3036 15.8651C25.7402 15.5999 25.2927 15.2188 24.9613 14.7216C24.6299 14.2197 24.4641 13.6136 24.4641 12.9034C24.4641 12.2784 24.5872 11.7718 24.8335 11.3835C25.0797 10.9905 25.4087 10.6828 25.8207 10.4602C26.2326 10.2377 26.6871 10.072 27.1843 9.96307C27.6862 9.84943 28.1905 9.75947 28.6971 9.69318C29.36 9.60795 29.8974 9.54403 30.3093 9.50142C30.726 9.45407 31.029 9.37595 31.2184 9.26705C31.4125 9.15814 31.5096 8.96875 31.5096 8.69886V8.64205C31.5096 7.94129 31.3178 7.39678 30.9343 7.00852C30.5555 6.62027 29.9802 6.42614 29.2085 6.42614C28.4083 6.42614 27.7809 6.60133 27.3263 6.9517C26.8718 7.30208 26.5522 7.67614 26.3675 8.07386L24.7766 7.50568C25.0607 6.8428 25.4395 6.3267 25.913 5.95739C26.3912 5.58333 26.9121 5.32292 27.4755 5.17614C28.0437 5.02462 28.6024 4.94886 29.1516 4.94886C29.502 4.94886 29.9045 4.99148 30.359 5.0767C30.8183 5.1572 31.261 5.32528 31.6871 5.58097C32.118 5.83665 32.4755 6.22254 32.7596 6.73864C33.0437 7.25473 33.1857 7.94602 33.1857 8.8125V16H31.5096V14.5227H31.4244C31.3107 14.7595 31.1213 15.0128 30.8562 15.2827C30.591 15.5526 30.2383 15.7822 29.7979 15.9716C29.3576 16.161 28.8202 16.2557 28.1857 16.2557ZM28.4414 14.75C29.1043 14.75 29.663 14.6198 30.1175 14.3594C30.5768 14.099 30.9225 13.7628 31.1545 13.3509C31.3912 12.9389 31.5096 12.5057 31.5096 12.0511V10.517C31.4386 10.6023 31.2823 10.6804 31.0408 10.7514C30.8041 10.8177 30.5295 10.8769 30.217 10.929C29.9092 10.9763 29.6085 11.0189 29.315 11.0568C29.0262 11.09 28.7918 11.1184 28.6119 11.142C28.1763 11.1989 27.7691 11.2912 27.3903 11.419C27.0162 11.5421 26.7132 11.7292 26.4812 11.9801C26.2539 12.2263 26.1403 12.5625 26.1403 12.9886C26.1403 13.571 26.3557 14.0114 26.7866 14.3097C27.2222 14.6032 27.7738 14.75 28.4414 14.75ZM37.9212 9.4375V16H36.245V5.09091H37.8643V6.79545H38.0064C38.2621 6.24148 38.6503 5.7964 39.1712 5.46023C39.692 5.11932 40.3643 4.94886 41.1882 4.94886C41.9268 4.94886 42.5732 5.10038 43.1271 5.40341C43.6811 5.7017 44.112 6.15625 44.4197 6.76705C44.7275 7.37311 44.8814 8.14015 44.8814 9.06818V16H43.2053V9.18182C43.2053 8.32481 42.9827 7.6572 42.5376 7.17898C42.0926 6.69602 41.4818 6.45455 40.7053 6.45455C40.1702 6.45455 39.692 6.57055 39.2706 6.80256C38.8539 7.03456 38.5249 7.37311 38.2834 7.81818C38.0419 8.26326 37.9212 8.80303 37.9212 9.4375ZM51.1545 16.2557C50.4632 16.2557 49.8358 16.1255 49.2724 15.8651C48.7089 15.5999 48.2615 15.2188 47.93 14.7216C47.5986 14.2197 47.4329 13.6136 47.4329 12.9034C47.4329 12.2784 47.556 11.7718 47.8022 11.3835C48.0484 10.9905 48.3775 10.6828 48.7894 10.4602C49.2013 10.2377 49.6559 10.072 50.1531 9.96307C50.6549 9.84943 51.1592 9.75947 51.6658 9.69318C52.3287 9.60795 52.8661 9.54403 53.2781 9.50142C53.6947 9.45407 53.9978 9.37595 54.1871 9.26705C54.3813 9.15814 54.4783 8.96875 54.4783 8.69886V8.64205C54.4783 7.94129 54.2866 7.39678 53.9031 7.00852C53.5243 6.62027 52.949 6.42614 52.1772 6.42614C51.377 6.42614 50.7496 6.60133 50.2951 6.9517C49.8406 7.30208 49.521 7.67614 49.3363 8.07386L47.7454 7.50568C48.0295 6.8428 48.4083 6.3267 48.8817 5.95739C49.36 5.58333 49.8808 5.32292 50.4442 5.17614C51.0124 5.02462 51.5711 4.94886 52.1204 4.94886C52.4708 4.94886 52.8732 4.99148 53.3278 5.0767C53.7871 5.1572 54.2298 5.32528 54.6559 5.58097C55.0868 5.83665 55.4442 6.22254 55.7283 6.73864C56.0124 7.25473 56.1545 7.94602 56.1545 8.8125V16H54.4783V14.5227H54.3931C54.2795 14.7595 54.0901 15.0128 53.8249 15.2827C53.5598 15.5526 53.207 15.7822 52.7667 15.9716C52.3263 16.161 51.7889 16.2557 51.1545 16.2557ZM51.4102 14.75C52.073 14.75 52.6317 14.6198 53.0863 14.3594C53.5456 14.099 53.8912 13.7628 54.1232 13.3509C54.36 12.9389 54.4783 12.5057 54.4783 12.0511V10.517C54.4073 10.6023 54.2511 10.6804 54.0096 10.7514C53.7728 10.8177 53.4982 10.8769 53.1857 10.929C52.878 10.9763 52.5773 11.0189 52.2837 11.0568C51.9949 11.09 51.7605 11.1184 51.5806 11.142C51.145 11.1989 50.7378 11.2912 50.359 11.419C49.985 11.5421 49.6819 11.7292 49.4499 11.9801C49.2227 12.2263 49.109 12.5625 49.109 12.9886C49.109 13.571 49.3245 14.0114 49.7553 14.3097C50.1909 14.6032 50.7425 14.75 51.4102 14.75ZM59.9027 20.0909C59.6186 20.0909 59.3653 20.0672 59.1428 20.0199C58.9202 19.9773 58.7663 19.9347 58.6811 19.892L59.1072 18.4148C59.5144 18.5189 59.8743 18.5568 60.1868 18.5284C60.4993 18.5 60.7763 18.3603 61.0178 18.1094C61.264 17.8632 61.4889 17.4631 61.6925 16.9091L62.005 16.0568L57.9709 5.09091H59.7891L62.8004 13.7841H62.9141L65.9254 5.09091H67.7436L63.1129 17.5909C62.9046 18.1544 62.6465 18.6207 62.3388 18.9901C62.031 19.3641 61.6735 19.6411 61.2663 19.821C60.8639 20.0009 60.4093 20.0909 59.9027 20.0909Z" fill="#FFFD7E"/>
</svg>
