<svg width="110" height="49" viewBox="0 0 110 49" fill="none" xmlns="http://www.w3.org/2000/svg">
<g clip-path="url(#clip0_1913_8155)">
<path fill-rule="evenodd" clip-rule="evenodd" d="M83.1 18.8299C82.73 16.5399 81.42 15.3799 78.92 15.3799H71.72C69.22 15.3799 67.91 16.5399 67.55 18.8299C67.5103 19.1049 67.487 19.3821 67.48 19.6599V33.2999H71.98V21.2299C71.98 20.2999 72.31 19.9299 73.18 19.9299H77.46C78.25 19.9299 78.66 20.2999 78.66 21.2299V33.2999H83.16V19.6599C83.16 19.3999 83.13 19.0999 83.1 18.8299ZM61 33.2999H65.5V15.3799H61V33.2999ZM52.74 8.8999H48.24V33.3199H52.74V19.9399H57.06V15.3999H52.74V8.8999ZM41.8 33.2999H46.3V8.8999H41.8V33.2999ZM11.24 21.2199C11.24 20.2599 10.74 19.9199 10.06 19.9199H5.78C4.93 19.9199 4.5 20.3199 4.5 21.1899V28.7499H10.04C10.83 28.7499 11.24 28.2499 11.24 27.4499V21.2199ZM15.68 19.0999C15.71 19.3299 15.74 19.5999 15.74 19.8299V28.7899C15.74 29.7499 15.54 30.5199 15.15 31.1799C14.3 32.7099 13.28 33.2999 11.64 33.2999H0V8.8999H4.5V15.3999H11.7C12 15.3999 12.3 15.4199 12.56 15.4999C14.26 15.8599 15.45 17.1799 15.68 19.0999ZM28.89 27.4499C28.89 28.3899 28.57 28.7499 27.69 28.7499H23.42C22.63 28.7499 22.22 28.3899 22.22 27.4499V15.3799H17.72V29.0199C17.72 29.2899 17.75 29.5799 17.78 29.8499C18.14 32.1499 19.46 33.2999 21.96 33.2999H29.16C31.66 33.2999 32.97 32.1399 33.33 29.8499C33.37 29.5799 33.4 29.2899 33.4 29.0199V15.3799H28.9V27.4499H28.89ZM35.37 33.3299H39.87V15.4099H35.37V33.3299Z" fill="white"/>
<mask id="mask0_1913_8155" style="mask-type:luminance" maskUnits="userSpaceOnUse" x="62" y="0" width="48" height="49">
<path fill-rule="evenodd" clip-rule="evenodd" d="M62.1001 0.149902V8.8299H65.1201V3.2299H106.73V45.7999H65.1301V40.1199H62.1001V48.8899H109.76V0.149902H62.1001Z" fill="white"/>
</mask>
<g mask="url(#mask0_1913_8155)">
<path fill-rule="evenodd" clip-rule="evenodd" d="M62.1001 0.149902V8.8299H65.1201V3.2299H106.73V45.7999H65.1301V40.1199H62.1001V48.8899H109.76V0.149902H62.1001Z" fill="url(#paint0_linear_1913_8155)"/>
</g>
</g>
<defs>
<linearGradient id="paint0_linear_1913_8155" x1="62.1001" y1="48.8899" x2="109.76" y2="48.8899" gradientUnits="userSpaceOnUse">
<stop stop-color="#4FE2C1"/>
<stop offset="1" stop-color="#234FDA"/>
</linearGradient>
<clipPath id="clip0_1913_8155">
<rect width="110" height="49" fill="white"/>
</clipPath>
</defs>
</svg>
