<?xml version="1.0" encoding="UTF-8"?><svg id="a" xmlns="http://www.w3.org/2000/svg" viewBox="0 0 1153.5 272.44"><defs><style>.b{fill:#fff;}</style></defs><path class="b" d="M170.23,272.44H79.57c-23.51,0-42.66-19.13-42.66-42.66v-40.58c0-4.21-1.78-8.26-4.87-11.11l-22.99-21.21c-5.75-5.31-9.06-12.83-9.06-20.66s3.31-15.35,9.06-20.66l22.99-21.21c3.09-2.85,4.87-6.9,4.87-11.11V42.66C36.91,19.15,56.04,0,79.57,0h45.45V27.53h-45.45c-8.35,0-15.1,6.79-15.1,15.1v40.58c0,11.88-5.01,23.31-13.74,31.36l-22.99,21.21v.82l22.99,21.21c8.73,8.05,13.74,19.48,13.74,31.36v40.58c0,8.35,6.79,15.1,15.1,15.1h90.66v27.58Z"/><path class="b" d="M240.26,272.44h-45.45v-27.53h45.45c8.35,0,15.1-6.79,15.1-15.1v-40.58c0-11.88,5.01-23.29,13.74-31.36l23.01-21.21v-.82l-23.01-21.21c-8.73-8.05-13.74-19.48-13.74-31.36V42.69c0-8.35-6.79-15.1-15.1-15.1h-90.66V.05h90.66c23.51,0,42.66,19.13,42.66,42.66v40.58c0,4.21,1.78,8.26,4.87,11.11l22.99,21.21c5.75,5.31,9.06,12.83,9.06,20.66s-3.31,15.35-9.06,20.66l-23.01,21.21c-3.09,2.85-4.87,6.9-4.87,11.11v40.58c.03,23.48-19.13,42.61-42.63,42.61Z"/><path class="b" d="M160.02,201.64c-36.09,0-65.43-29.36-65.43-65.43s29.36-65.43,65.43-65.43,65.43,29.36,65.43,65.43-29.33,65.43-65.43,65.43Zm0-103.33c-20.91,0-37.9,16.99-37.9,37.9s16.99,37.9,37.9,37.9,37.9-16.99,37.9-37.9-16.99-37.9-37.9-37.9Z"/><circle class="b" cx="160.02" cy="136.22" r="18.96"/><path class="b" d="M380.44,145.85c1.56,11.93,11.93,20.52,28.73,20.52,8.78,0,20.33-3.31,25.8-8.98l15.24,15.05c-10.15,10.56-26.76,15.62-41.43,15.62-33.22,0-52.95-20.52-52.95-51.39s19.92-50.4,51.2-50.4,52.35,19.92,48.65,59.6h-75.25v-.03Zm52.35-19.73c-1.56-12.51-11.33-18.74-25.01-18.74-12.89,0-23.45,6.24-26.95,18.74h51.96Z"/><path class="b" d="M556.66,173.19c-11.14,10.95-22.85,15.24-37.13,15.24-27.94,0-51.2-16.8-51.2-50.98s23.26-51.01,51.2-51.01c13.68,0,24.22,3.91,34.78,14.26l-15.05,15.82c-5.66-5.09-12.7-7.61-19.35-7.61-16.01,0-27.75,11.71-27.75,28.51,0,18.36,12.51,28.13,27.36,28.13,7.61,0,15.24-2.16,21.1-8.02l16.04,15.65Z"/><path class="b" d="M591.03,48.74v53.52c8.59-11.14,19.15-14.45,30.1-14.45,27.36,0,39.46,18.55,39.46,46.9v50.79h-23.83v-50.6c0-17.6-9.17-25.01-21.89-25.01-14.07,0-23.83,11.93-23.83,26.38v49.23h-23.83V48.74h23.83Z"/><path class="b" d="M776.45,137.45c0,27.75-18.96,50.21-50.21,50.21s-50.02-22.47-50.02-50.21,19.15-50.21,49.83-50.21c30.68,0,50.4,22.66,50.4,50.21Zm-76.4,0c0,14.64,8.78,28.32,26.19,28.32s26.19-13.68,26.19-28.32-10.15-28.51-26.19-28.51c-17.18-.03-26.19,14.07-26.19,28.51Z"/><path class="b" d="M818.24,88.8v117.23c0,23.83-10.37,39.27-32.04,39.27-7.03,0-14.45-1.94-21.29-6.46l8.59-18.55c4.1,1.94,8.02,2.93,11.52,2.74,7.83-.38,9.58-6.46,9.58-16.99V88.8h23.64Z"/><path class="b" d="M792.43,61.84c0,18.55,28.13,18.55,28.13,0,0-18.58-28.13-18.58-28.13,0Z"/><path class="b" d="M934.29,137.45c0,27.75-18.96,50.21-50.21,50.21s-50.02-22.47-50.02-50.21,19.15-50.21,49.83-50.21c30.68,0,50.4,22.66,50.4,50.21Zm-76.4,0c0,14.64,8.78,28.32,26.19,28.32s26.19-13.68,26.19-28.32-10.15-28.51-26.19-28.51c-17.18-.03-26.19,14.07-26.19,28.51Z"/><path class="b" d="M974.51,48.93v53.33c5.66-9.96,21.48-15.43,31.66-15.43,28.13,0,49.04,17.18,49.04,50.4s-21.29,50.4-49.64,50.4c-11.71,0-23.64-3.91-31.06-15.43l-1.56,13.3h-22.27V48.93h23.83Zm1.59,88.33c0,17.38,12.89,28.32,27.94,28.32s27.36-11.52,27.36-28.32-12.12-28.13-27.36-28.13-27.94,11.33-27.94,28.13Z"/><path class="b" d="M1135.71,114.79c-6.84-6.46-14.67-8.59-23.83-8.59-11.33,0-17.6,3.5-17.6,9.58s5.66,9.77,17.98,10.56c18.17,1.18,41.24,5.28,41.24,30.87,0,16.99-13.87,31.66-41.43,31.66-15.24,0-30.48-2.54-44.55-17.18l11.71-16.99c6.84,7.61,22.47,13.3,33.22,13.49,8.98,.19,17.38-4.49,17.38-11.52,0-6.65-5.47-9.39-19.15-10.15-18.17-1.37-39.87-8.02-39.87-29.88s23.07-30.1,40.64-30.1c15.05,0,26.38,2.93,37.52,12.7l-13.24,15.57Z"/></svg>