<svg fill="none" width="546" viewBox="0 0 546 128" xmlns="http://www.w3.org/2000/svg" class="css-1jw91ef"><title>Levels FYI Logo</title><path d="M173.588 100.157C172.372 100.157 171.348 99.7406 170.516 98.9086C169.684 98.0766 169.268 97.0526 169.268 95.8366V33.5326C169.268 32.3166 169.684 31.2926 170.516 30.4606C171.348 29.5646 172.372 29.1166 173.588 29.1166C174.868 29.1166 175.924 29.5326 176.756 30.3646C177.588 31.1966 178.004 32.2526 178.004 33.5326V95.8366C178.004 97.0526 177.556 98.0766 176.66 98.9086C175.828 99.7406 174.804 100.157 173.588 100.157ZM214.102 100.637C206.294 100.637 200.182 98.4286 195.766 94.0126C191.414 89.5326 189.238 83.2606 189.238 75.1966C189.238 70.6526 190.07 66.4606 191.734 62.6206C193.398 58.7806 195.958 55.6766 199.414 53.3086C202.87 50.9406 207.126 49.7566 212.182 49.7566C216.918 49.7566 221.014 50.8766 224.47 53.1166C227.926 55.2926 230.55 58.2366 232.342 61.9486C234.134 65.5966 235.03 69.5966 235.03 73.9486C235.03 75.1646 234.614 76.1886 233.782 77.0206C233.014 77.8526 231.958 78.2686 230.614 78.2686H198.07C198.582 82.7486 200.246 86.2366 203.062 88.7326C205.878 91.2286 209.814 92.4766 214.87 92.4766C217.558 92.4766 219.894 92.2206 221.878 91.7086C223.926 91.1966 225.91 90.4606 227.83 89.5006C228.342 89.2446 228.918 89.1166 229.558 89.1166C230.582 89.1166 231.478 89.4686 232.246 90.1726C233.014 90.8766 233.398 91.7726 233.398 92.8606C233.398 94.2686 232.566 95.4526 230.902 96.4126C228.406 97.8206 225.942 98.8766 223.51 99.5806C221.078 100.285 217.942 100.637 214.102 100.637ZM226.39 71.1646C226.198 68.0286 225.366 65.4046 223.894 63.2926C222.486 61.1806 220.726 59.6446 218.614 58.6846C216.502 57.6606 214.358 57.1486 212.182 57.1486C210.006 57.1486 207.862 57.6606 205.75 58.6846C203.638 59.6446 201.878 61.1806 200.47 63.2926C199.062 65.4046 198.262 68.0286 198.07 71.1646H226.39ZM262.537 100.157C261.385 100.157 260.329 99.8366 259.369 99.1966C258.409 98.4926 257.705 97.6286 257.257 96.6046L240.553 56.6686C240.233 55.9006 240.073 55.2286 240.073 54.6526C240.073 53.4366 240.489 52.4126 241.321 51.5806C242.153 50.6846 243.177 50.2366 244.393 50.2366C245.225 50.2366 245.993 50.4926 246.697 51.0046C247.465 51.4526 248.009 52.0286 248.329 52.7326L263.017 89.9806L277.705 52.7326C278.025 52.0286 278.537 51.4526 279.241 51.0046C280.009 50.4926 280.809 50.2366 281.641 50.2366C282.857 50.2366 283.881 50.6846 284.713 51.5806C285.545 52.4126 285.961 53.4366 285.961 54.6526C285.961 55.2286 285.801 55.9006 285.481 56.6686L268.777 96.6046C268.329 97.6286 267.625 98.4926 266.665 99.1966C265.705 99.8366 264.649 100.157 263.497 100.157H262.537ZM316.339 100.637C308.531 100.637 302.419 98.4286 298.003 94.0126C293.651 89.5326 291.475 83.2606 291.475 75.1966C291.475 70.6526 292.307 66.4606 293.971 62.6206C295.635 58.7806 298.195 55.6766 301.651 53.3086C305.107 50.9406 309.363 49.7566 314.419 49.7566C319.155 49.7566 323.251 50.8766 326.707 53.1166C330.163 55.2926 332.787 58.2366 334.579 61.9486C336.371 65.5966 337.267 69.5966 337.267 73.9486C337.267 75.1646 336.851 76.1886 336.019 77.0206C335.251 77.8526 334.195 78.2686 332.851 78.2686H300.307C300.819 82.7486 302.483 86.2366 305.299 88.7326C308.115 91.2286 312.051 92.4766 317.107 92.4766C319.795 92.4766 322.131 92.2206 324.115 91.7086C326.163 91.1966 328.147 90.4606 330.067 89.5006C330.579 89.2446 331.155 89.1166 331.795 89.1166C332.819 89.1166 333.715 89.4686 334.483 90.1726C335.251 90.8766 335.635 91.7726 335.635 92.8606C335.635 94.2686 334.803 95.4526 333.139 96.4126C330.643 97.8206 328.179 98.8766 325.747 99.5806C323.315 100.285 320.179 100.637 316.339 100.637ZM328.627 71.1646C328.435 68.0286 327.603 65.4046 326.131 63.2926C324.723 61.1806 322.963 59.6446 320.851 58.6846C318.739 57.6606 316.595 57.1486 314.419 57.1486C312.243 57.1486 310.099 57.6606 307.987 58.6846C305.875 59.6446 304.115 61.1806 302.707 63.2926C301.299 65.4046 300.499 68.0286 300.307 71.1646H328.627ZM352.186 100.157C350.97 100.157 349.946 99.7406 349.114 98.9086C348.282 98.0766 347.866 97.0526 347.866 95.8366V33.5326C347.866 32.3166 348.282 31.2926 349.114 30.4606C349.946 29.5646 350.97 29.1166 352.186 29.1166C353.466 29.1166 354.522 29.5326 355.354 30.3646C356.186 31.1966 356.602 32.2526 356.602 33.5326V95.8366C356.602 97.0526 356.154 98.0766 355.258 98.9086C354.426 99.7406 353.402 100.157 352.186 100.157Z" fill="#4c5d67"></path><path d="M170.516 98.9086L171.223 98.2015L171.223 98.2015L170.516 98.9086ZM170.516 30.4606L171.223 31.1677L171.236 31.1546L171.249 31.1411L170.516 30.4606ZM176.756 30.3646L177.463 29.6575L177.463 29.6575L176.756 30.3646ZM176.66 98.9086L175.98 98.1758L175.966 98.1884L175.953 98.2015L176.66 98.9086ZM173.588 99.1566C172.627 99.1566 171.861 98.8391 171.223 98.2015L169.809 99.6157C170.835 100.642 172.117 101.157 173.588 101.157V99.1566ZM171.223 98.2015C170.586 97.5639 170.268 96.7973 170.268 95.8366H168.268C168.268 97.3079 168.782 98.5893 169.809 99.6157L171.223 98.2015ZM170.268 95.8366V33.5326H168.268V95.8366H170.268ZM170.268 33.5326C170.268 32.5719 170.586 31.8053 171.223 31.1677L169.809 29.7535C168.782 30.7799 168.268 32.0613 168.268 33.5326H170.268ZM171.249 31.1411C171.893 30.4476 172.652 30.1166 173.588 30.1166V28.1166C172.092 28.1166 170.803 28.6817 169.783 29.7802L171.249 31.1411ZM173.588 30.1166C174.628 30.1166 175.422 30.4447 176.049 31.0717L177.463 29.6575C176.426 28.6206 175.108 28.1166 173.588 28.1166V30.1166ZM176.049 31.0717C176.676 31.6988 177.004 32.4922 177.004 33.5326H179.004C179.004 32.0131 178.5 30.6945 177.463 29.6575L176.049 31.0717ZM177.004 33.5326V95.8366H179.004V33.5326H177.004ZM177.004 95.8366C177.004 96.7728 176.673 97.5318 175.98 98.1758L177.34 99.6414C178.439 98.6214 179.004 97.3324 179.004 95.8366H177.004ZM175.953 98.2015C175.315 98.8391 174.549 99.1566 173.588 99.1566V101.157C175.059 101.157 176.341 100.642 177.367 99.6157L175.953 98.2015ZM195.766 94.0126L195.049 94.7094L195.054 94.7146L195.059 94.7197L195.766 94.0126ZM199.414 53.3086L199.979 54.1336L199.979 54.1336L199.414 53.3086ZM224.47 53.1166L223.926 53.9558L223.937 53.9629L224.47 53.1166ZM232.342 61.9486L231.442 62.3834L231.445 62.3895L232.342 61.9486ZM233.782 77.0206L233.075 76.3135L233.061 76.3276L233.047 76.3423L233.782 77.0206ZM198.07 78.2686V77.2686H196.949L197.077 78.3822L198.07 78.2686ZM203.062 88.7326L202.399 89.481L202.399 89.481L203.062 88.7326ZM221.878 91.7086L221.636 90.7384L221.628 90.7403L221.878 91.7086ZM227.83 89.5006L227.383 88.6062L227.383 88.6062L227.83 89.5006ZM230.902 96.4126L231.394 97.2836L231.402 97.2788L230.902 96.4126ZM223.51 99.5806L223.788 100.541L223.788 100.541L223.51 99.5806ZM226.39 71.1646V72.1646H227.453L227.388 71.1035L226.39 71.1646ZM223.894 63.2926L223.062 63.8473L223.068 63.8559L223.074 63.8644L223.894 63.2926ZM218.614 58.6846L218.178 59.5844L218.189 59.5898L218.2 59.595L218.614 58.6846ZM205.75 58.6846L206.164 59.595L206.175 59.5898L206.187 59.5844L205.75 58.6846ZM200.47 63.2926L201.302 63.8473L201.302 63.8473L200.47 63.2926ZM198.07 71.1646L197.072 71.1035L197.007 72.1646H198.07V71.1646ZM214.102 99.6366C206.489 99.6366 200.657 97.4896 196.473 93.3055L195.059 94.7197C199.707 99.3676 206.099 101.637 214.102 101.637V99.6366ZM196.484 93.3158C192.361 89.0722 190.238 83.0792 190.238 75.1966H188.238C188.238 83.442 190.467 89.993 195.049 94.7094L196.484 93.3158ZM190.238 75.1966C190.238 70.7775 191.047 66.7223 192.652 63.0182L190.817 62.223C189.094 66.1989 188.238 70.5277 188.238 75.1966H190.238ZM192.652 63.0182C194.241 59.3512 196.679 56.3952 199.979 54.1336L198.849 52.4837C195.238 54.958 192.556 58.21 190.817 62.223L192.652 63.0182ZM199.979 54.1336C203.237 51.9014 207.286 50.7566 212.182 50.7566V48.7566C206.967 48.7566 202.503 49.9798 198.849 52.4837L199.979 54.1336ZM212.182 50.7566C216.755 50.7566 220.656 51.8358 223.926 53.9558L225.014 52.2775C221.373 49.9174 217.082 48.7566 212.182 48.7566V50.7566ZM223.937 53.9629C227.233 56.0379 229.73 58.8386 231.442 62.3834L233.243 61.5139C231.37 57.6346 228.619 54.5473 225.003 52.2704L223.937 53.9629ZM231.445 62.3895C233.165 65.8907 234.03 69.7384 234.03 73.9486H236.03C236.03 69.4548 235.104 65.3025 233.24 61.5077L231.445 62.3895ZM234.03 73.9486C234.03 74.9093 233.713 75.6759 233.075 76.3135L234.489 77.7277C235.516 76.7013 236.03 75.4199 236.03 73.9486H234.03ZM233.047 76.3423C232.504 76.931 231.736 77.2686 230.614 77.2686V79.2686C232.181 79.2686 233.524 78.7743 234.517 77.6989L233.047 76.3423ZM230.614 77.2686H198.07V79.2686H230.614V77.2686ZM197.077 78.3822C197.611 83.056 199.363 86.7901 202.399 89.481L203.726 87.9843C201.129 85.6831 199.554 82.4412 199.064 78.1551L197.077 78.3822ZM202.399 89.481C205.453 92.1878 209.655 93.4766 214.87 93.4766V91.4766C209.974 91.4766 206.304 90.2695 203.726 87.9843L202.399 89.481ZM214.87 93.4766C217.618 93.4766 220.042 93.2153 222.128 92.6769L221.628 90.7403C219.747 91.2259 217.499 91.4766 214.87 91.4766V93.4766ZM222.121 92.6788C224.241 92.1488 226.293 91.3871 228.277 90.395L227.383 88.6062C225.527 89.5341 223.612 90.2445 221.636 90.7385L222.121 92.6788ZM228.277 90.395C228.635 90.2163 229.055 90.1166 229.558 90.1166V88.1166C228.782 88.1166 228.05 88.2729 227.383 88.6062L228.277 90.395ZM229.558 90.1166C230.327 90.1166 230.983 90.3716 231.571 90.9098L232.922 89.4355C231.973 88.5657 230.837 88.1166 229.558 88.1166V90.1166ZM231.571 90.9098C232.122 91.4151 232.398 92.0389 232.398 92.8606H234.398C234.398 91.5063 233.907 90.3382 232.922 89.4355L231.571 90.9098ZM232.398 92.8606C232.398 93.7852 231.884 94.6916 230.403 95.5464L231.402 97.2788C233.248 96.2137 234.398 94.752 234.398 92.8606H232.398ZM230.411 95.5416C227.974 96.9165 225.581 97.9402 223.232 98.6201L223.788 100.541C226.304 99.8131 228.839 98.7247 231.394 97.2836L230.411 95.5416ZM223.232 98.6201C220.924 99.2881 217.891 99.6366 214.102 99.6366V101.637C217.993 101.637 221.232 101.281 223.788 100.541L223.232 98.6201ZM227.388 71.1035C227.188 67.8246 226.313 65.0136 224.715 62.7208L223.074 63.8644C224.42 65.7956 225.209 68.2326 225.392 71.2257L227.388 71.1035ZM224.726 62.7379C223.225 60.4858 221.326 58.8187 219.028 57.7743L218.2 59.595C220.127 60.4706 221.748 61.8754 223.062 63.8473L224.726 62.7379ZM219.051 57.7848C216.813 56.7002 214.521 56.1486 212.182 56.1486V58.1486C214.195 58.1486 216.191 58.6211 218.178 59.5844L219.051 57.7848ZM212.182 56.1486C209.843 56.1486 207.551 56.7002 205.314 57.7848L206.187 59.5844C208.173 58.6211 210.169 58.1486 212.182 58.1486V56.1486ZM205.336 57.7743C203.039 58.8187 201.14 60.4858 199.638 62.7379L201.302 63.8473C202.617 61.8754 204.238 60.4706 206.164 59.595L205.336 57.7743ZM199.638 62.7379C198.111 65.0281 197.272 67.8328 197.072 71.1035L199.068 71.2257C199.252 68.2245 200.013 65.7812 201.302 63.8473L199.638 62.7379ZM198.07 72.1646H226.39V70.1646H198.07V72.1646ZM259.369 99.1966L258.777 100.003L258.795 100.016L258.814 100.029L259.369 99.1966ZM257.257 96.6046L256.334 96.9905L256.337 96.998L256.34 97.0054L257.257 96.6046ZM240.553 56.6686L239.629 57.0532L239.63 57.0545L240.553 56.6686ZM241.321 51.5806L242.028 52.2877L242.041 52.2746L242.053 52.2611L241.321 51.5806ZM246.697 51.0046L246.108 51.8134L246.149 51.843L246.193 51.8684L246.697 51.0046ZM248.329 52.7326L249.259 52.3658L249.249 52.342L249.239 52.3188L248.329 52.7326ZM263.017 89.9806L262.086 90.3475L263.017 92.7066L263.947 90.3475L263.017 89.9806ZM277.705 52.7326L276.794 52.3188L276.784 52.342L276.774 52.3658L277.705 52.7326ZM279.241 51.0046L279.777 51.8483L279.786 51.8426L279.795 51.8367L279.241 51.0046ZM284.713 51.5806L283.98 52.2611L283.992 52.2746L284.005 52.2877L284.713 51.5806ZM285.481 56.6686L286.403 57.0545L286.404 57.0532L285.481 56.6686ZM268.777 96.6046L269.693 97.0054L269.696 96.998L269.699 96.9905L268.777 96.6046ZM266.665 99.1966L267.219 100.029L267.238 100.016L267.256 100.003L266.665 99.1966ZM262.537 99.1566C261.582 99.1566 260.719 98.8952 259.923 98.3646L258.814 100.029C259.938 100.778 261.187 101.157 262.537 101.157V99.1566ZM259.96 98.3902C259.132 97.7834 258.545 97.0558 258.173 96.2038L256.34 97.0054C256.864 98.2014 257.685 99.2018 258.777 100.003L259.96 98.3902ZM258.179 96.2187L241.475 56.2827L239.63 57.0545L256.334 96.9905L258.179 96.2187ZM241.476 56.284C241.186 55.5881 241.073 55.0517 241.073 54.6526H239.073C239.073 55.4056 239.279 56.2131 239.629 57.0532L241.476 56.284ZM241.073 54.6526C241.073 53.6919 241.39 52.9253 242.028 52.2877L240.613 50.8735C239.587 51.8999 239.073 53.1813 239.073 54.6526H241.073ZM242.053 52.2611C242.697 51.5676 243.456 51.2366 244.393 51.2366V49.2366C242.897 49.2366 241.608 49.8017 240.588 50.9002L242.053 52.2611ZM244.393 51.2366C245.003 51.2366 245.567 51.4195 246.108 51.8134L247.285 50.1959C246.418 49.5657 245.446 49.2366 244.393 49.2366V51.2366ZM246.193 51.8684C246.81 52.2283 247.196 52.6581 247.418 53.1464L249.239 52.3188C248.821 51.3991 248.119 50.677 247.2 50.1408L246.193 51.8684ZM247.398 53.0995L262.086 90.3475L263.947 89.6138L249.259 52.3658L247.398 53.0995ZM263.947 90.3475L278.635 53.0995L276.774 52.3658L262.086 89.6138L263.947 90.3475ZM278.615 53.1464C278.848 52.6329 279.223 52.2008 279.777 51.8483L278.704 50.161C277.85 50.7044 277.201 51.4243 276.794 52.3188L278.615 53.1464ZM279.795 51.8367C280.418 51.4217 281.027 51.2366 281.641 51.2366V49.2366C280.59 49.2366 279.599 49.5635 278.686 50.1726L279.795 51.8367ZM281.641 51.2366C282.577 51.2366 283.336 51.5676 283.98 52.2611L285.445 50.9002C284.425 49.8017 283.136 49.2366 281.641 49.2366V51.2366ZM284.005 52.2877C284.643 52.9253 284.961 53.6919 284.961 54.6526H286.961C286.961 53.1813 286.446 51.8999 285.42 50.8735L284.005 52.2877ZM284.961 54.6526C284.961 55.0517 284.847 55.5881 284.557 56.284L286.404 57.0532C286.754 56.2131 286.961 55.4056 286.961 54.6526H284.961ZM284.558 56.2827L267.854 96.2187L269.699 96.9905L286.403 57.0545L284.558 56.2827ZM267.86 96.2038C267.488 97.0558 266.901 97.7834 266.073 98.3902L267.256 100.003C268.348 99.2018 269.169 98.2015 269.693 97.0054L267.86 96.2038ZM266.11 98.3646C265.314 98.8952 264.451 99.1566 263.497 99.1566V101.157C264.846 101.157 266.095 100.778 267.219 100.029L266.11 98.3646ZM263.497 99.1566H262.537V101.157H263.497V99.1566ZM298.003 94.0126L297.285 94.7094L297.29 94.7146L297.295 94.7197L298.003 94.0126ZM301.651 53.3086L302.216 54.1336L302.216 54.1336L301.651 53.3086ZM326.707 53.1166L326.163 53.9558L326.174 53.9629L326.707 53.1166ZM334.579 61.9486L333.678 62.3834L333.681 62.3895L334.579 61.9486ZM336.019 77.0206L335.311 76.3135L335.297 76.3276L335.284 76.3423L336.019 77.0206ZM300.307 78.2686V77.2686H299.186L299.313 78.3822L300.307 78.2686ZM305.299 88.7326L304.635 89.481L304.635 89.481L305.299 88.7326ZM324.115 91.7086L323.872 90.7384L323.865 90.7403L324.115 91.7086ZM330.067 89.5006L329.619 88.6062L329.619 88.6062L330.067 89.5006ZM333.139 96.4126L333.63 97.2836L333.638 97.2788L333.139 96.4126ZM325.747 99.5806L326.025 100.541L326.025 100.541L325.747 99.5806ZM328.627 71.1646V72.1646H329.69L329.625 71.1035L328.627 71.1646ZM326.131 63.2926L325.298 63.8473L325.304 63.8559L325.31 63.8644L326.131 63.2926ZM320.851 58.6846L320.414 59.5844L320.425 59.5898L320.437 59.595L320.851 58.6846ZM307.987 58.6846L308.4 59.595L308.412 59.5898L308.423 59.5844L307.987 58.6846ZM302.707 63.2926L303.539 63.8473L303.539 63.8473L302.707 63.2926ZM300.307 71.1646L299.308 71.1035L299.243 72.1646H300.307V71.1646ZM316.339 99.6366C308.726 99.6366 302.894 97.4896 298.71 93.3055L297.295 94.7197C301.943 99.3676 308.335 101.637 316.339 101.637V99.6366ZM298.72 93.3158C294.597 89.0722 292.475 83.0792 292.475 75.1966H290.475C290.475 83.442 292.704 89.993 297.285 94.7094L298.72 93.3158ZM292.475 75.1966C292.475 70.7775 293.283 66.7223 294.888 63.0182L293.053 62.223C291.33 66.1989 290.475 70.5277 290.475 75.1966H292.475ZM294.888 63.0182C296.477 59.3512 298.915 56.3952 302.216 54.1336L301.085 52.4837C297.474 54.958 294.792 58.21 293.053 62.223L294.888 63.0182ZM302.216 54.1336C305.473 51.9014 309.522 50.7566 314.419 50.7566V48.7566C309.203 48.7566 304.74 49.9798 301.085 52.4837L302.216 54.1336ZM314.419 50.7566C318.991 50.7566 322.892 51.8358 326.163 53.9558L327.25 52.2775C323.609 49.9174 319.318 48.7566 314.419 48.7566V50.7566ZM326.174 53.9629C329.469 56.0379 331.967 58.8386 333.678 62.3834L335.479 61.5139C333.606 57.6346 330.856 54.5473 327.239 52.2704L326.174 53.9629ZM333.681 62.3895C335.401 65.8907 336.267 69.7384 336.267 73.9486H338.267C338.267 69.4548 337.34 65.3025 335.476 61.5077L333.681 62.3895ZM336.267 73.9486C336.267 74.9093 335.949 75.6759 335.311 76.3135L336.726 77.7277C337.752 76.7013 338.267 75.4199 338.267 73.9486H336.267ZM335.284 76.3423C334.74 76.931 333.972 77.2686 332.851 77.2686V79.2686C334.417 79.2686 335.761 78.7743 336.753 77.6989L335.284 76.3423ZM332.851 77.2686H300.307V79.2686H332.851V77.2686ZM299.313 78.3822C299.847 83.056 301.599 86.7901 304.635 89.481L305.962 87.9843C303.366 85.6831 301.79 82.4412 301.3 78.1551L299.313 78.3822ZM304.635 89.481C307.689 92.1878 311.891 93.4766 317.107 93.4766V91.4766C312.21 91.4766 308.54 90.2695 305.962 87.9843L304.635 89.481ZM317.107 93.4766C319.854 93.4766 322.278 93.2153 324.364 92.6769L323.865 90.7403C321.983 91.2259 319.735 91.4766 317.107 91.4766V93.4766ZM324.357 92.6788C326.477 92.1488 328.53 91.3871 330.514 90.395L329.619 88.6062C327.763 89.5341 325.848 90.2445 323.872 90.7385L324.357 92.6788ZM330.514 90.395C330.871 90.2163 331.291 90.1166 331.795 90.1166V88.1166C331.018 88.1166 330.286 88.2729 329.619 88.6062L330.514 90.395ZM331.795 90.1166C332.564 90.1166 333.22 90.3716 333.807 90.9098L335.158 89.4355C334.209 88.5657 333.073 88.1166 331.795 88.1166V90.1166ZM333.807 90.9098C334.358 91.4151 334.635 92.0389 334.635 92.8606H336.635C336.635 91.5063 336.143 90.3382 335.158 89.4355L333.807 90.9098ZM334.635 92.8606C334.635 93.7852 334.121 94.6916 332.639 95.5464L333.638 97.2788C335.484 96.2137 336.635 94.752 336.635 92.8606H334.635ZM332.647 95.5416C330.21 96.9165 327.817 97.9402 325.468 98.6201L326.025 100.541C328.54 99.8131 331.075 98.7247 333.63 97.2836L332.647 95.5416ZM325.468 98.6201C323.161 99.2881 320.128 99.6366 316.339 99.6366V101.637C320.229 101.637 323.468 101.281 326.025 100.541L325.468 98.6201ZM329.625 71.1035C329.424 67.8246 328.549 65.0136 326.951 62.7208L325.31 63.8644C326.656 65.7956 327.445 68.2326 327.628 71.2257L329.625 71.1035ZM326.963 62.7379C325.461 60.4858 323.562 58.8187 321.264 57.7743L320.437 59.595C322.363 60.4706 323.984 61.8754 325.298 63.8473L326.963 62.7379ZM321.287 57.7848C319.05 56.7002 316.757 56.1486 314.419 56.1486V58.1486C316.432 58.1486 318.427 58.6211 320.414 59.5844L321.287 57.7848ZM314.419 56.1486C312.08 56.1486 309.787 56.7002 307.55 57.7848L308.423 59.5844C310.41 58.6211 312.405 58.1486 314.419 58.1486V56.1486ZM307.573 57.7743C305.275 58.8187 303.376 60.4858 301.874 62.7379L303.539 63.8473C304.853 61.8754 306.474 60.4706 308.4 59.595L307.573 57.7743ZM301.874 62.7379C300.348 65.0281 299.509 67.8328 299.308 71.1035L301.305 71.2257C301.488 68.2245 302.249 65.7812 303.539 63.8473L301.874 62.7379ZM300.307 72.1646H328.627V70.1646H300.307V72.1646ZM349.114 98.9086L349.821 98.2015L349.821 98.2015L349.114 98.9086ZM349.114 30.4606L349.821 31.1677L349.834 31.1546L349.846 31.1411L349.114 30.4606ZM355.354 30.3646L356.061 29.6575L356.061 29.6575L355.354 30.3646ZM355.258 98.9086L354.577 98.1758L354.563 98.1884L354.55 98.2015L355.258 98.9086ZM352.186 99.1566C351.225 99.1566 350.458 98.8391 349.821 98.2015L348.406 99.6157C349.433 100.642 350.714 101.157 352.186 101.157V99.1566ZM349.821 98.2015C349.183 97.5639 348.866 96.7973 348.866 95.8366H346.866C346.866 97.3079 347.38 98.5893 348.406 99.6157L349.821 98.2015ZM348.866 95.8366V33.5326H346.866V95.8366H348.866ZM348.866 33.5326C348.866 32.5719 349.183 31.8053 349.821 31.1677L348.406 29.7535C347.38 30.7799 346.866 32.0613 346.866 33.5326H348.866ZM349.846 31.1411C350.49 30.4476 351.249 30.1166 352.186 30.1166V28.1166C350.69 28.1166 349.401 28.6817 348.381 29.7802L349.846 31.1411ZM352.186 30.1166C353.226 30.1166 354.019 30.4447 354.646 31.0717L356.061 29.6575C355.024 28.6206 353.705 28.1166 352.186 28.1166V30.1166ZM354.646 31.0717C355.273 31.6988 355.602 32.4922 355.602 33.5326H357.602C357.602 32.0131 357.098 30.6945 356.061 29.6575L354.646 31.0717ZM355.602 33.5326V95.8366H357.602V33.5326H355.602ZM355.602 95.8366C355.602 96.7728 355.271 97.5318 354.577 98.1758L355.938 99.6414C357.036 98.6214 357.602 97.3324 357.602 95.8366H355.602ZM354.55 98.2015C353.913 98.8391 353.146 99.1566 352.186 99.1566V101.157C353.657 101.157 354.938 100.642 355.965 99.6157L354.55 98.2015Z" fill="#4c5d67"></path><path d="M388.424 100.96C382.024 100.96 376.2 99.52 370.952 96.64C369.864 95.872 369.32 94.816 369.32 93.472C369.32 92.448 369.672 91.552 370.376 90.784C371.08 90.016 371.976 89.632 373.064 89.632C373.64 89.632 374.216 89.76 374.792 90.016C376.84 90.912 378.888 91.616 380.936 92.128C382.984 92.64 385.288 92.896 387.848 92.896C394.952 92.896 398.504 90.624 398.504 86.08C398.504 84.608 397.672 83.488 396.008 82.72C394.408 81.952 391.752 81.088 388.04 80.128C384.264 79.232 381.128 78.304 378.632 77.344C376.2 76.384 374.088 74.944 372.296 73.024C370.568 71.04 369.704 68.448 369.704 65.248C369.704 60.768 371.304 57.12 374.504 54.304C377.768 51.488 382.408 50.08 388.424 50.08C393.352 50.08 397.992 50.88 402.344 52.48C403.24 52.736 403.912 53.216 404.36 53.92C404.872 54.624 405.128 55.36 405.128 56.128C405.128 57.152 404.744 58.048 403.976 58.816C403.272 59.584 402.376 59.968 401.288 59.968C400.968 59.968 400.552 59.904 400.04 59.776C396.328 58.624 392.68 58.048 389.096 58.048C385.64 58.048 382.92 58.688 380.936 59.968C379.016 61.184 378.056 62.784 378.056 64.768C378.056 66.688 378.952 68.096 380.744 68.992C382.536 69.888 385.32 70.752 389.096 71.584C392.872 72.544 395.944 73.504 398.312 74.464C400.68 75.36 402.696 76.8 404.36 78.784C406.088 80.768 406.952 83.424 406.952 86.752C406.952 90.848 405.32 94.24 402.056 96.928C398.856 99.616 394.312 100.96 388.424 100.96Z" fill="#4c5d67"></path><path d="M370.952 96.64L370.375 97.457L370.421 97.4895L370.471 97.5167L370.952 96.64ZM370.376 90.784L371.113 91.4597L371.113 91.4597L370.376 90.784ZM374.792 90.016L374.386 90.9298L374.391 90.9322L374.792 90.016ZM396.008 82.72L395.575 83.6215L395.582 83.6248L395.589 83.628L396.008 82.72ZM388.04 80.128L388.29 79.1599L388.281 79.1573L388.271 79.155L388.04 80.128ZM378.632 77.344L378.265 78.2742L378.273 78.2773L378.632 77.344ZM372.296 73.024L371.542 73.6808L371.553 73.6937L371.565 73.7063L372.296 73.024ZM374.504 54.304L373.851 53.5468L373.843 53.5533L374.504 54.304ZM402.344 52.48L401.999 53.4186L402.034 53.4313L402.069 53.4415L402.344 52.48ZM404.36 53.92L403.516 54.4569L403.533 54.4831L403.551 54.5082L404.36 53.92ZM403.976 58.816L403.269 58.1089L403.254 58.1243L403.239 58.1403L403.976 58.816ZM400.04 59.776L399.744 60.7311L399.77 60.7394L399.797 60.7461L400.04 59.776ZM380.936 59.968L381.471 60.8128L381.478 60.8083L380.936 59.968ZM389.096 71.584L389.342 70.6148L389.327 70.6109L389.311 70.6074L389.096 71.584ZM398.312 74.464L397.936 75.3907L397.947 75.3951L397.958 75.3993L398.312 74.464ZM404.36 78.784L403.594 79.4266L403.6 79.4338L403.606 79.4408L404.36 78.784ZM402.056 96.928L401.42 96.156L401.413 96.1623L402.056 96.928ZM388.424 99.96C382.18 99.96 376.523 98.5568 371.433 95.7633L370.471 97.5167C375.877 100.483 381.868 101.96 388.424 101.96V99.96ZM371.529 95.823C370.709 95.2445 370.32 94.4946 370.32 93.472H368.32C368.32 95.1374 369.019 96.4995 370.375 97.457L371.529 95.823ZM370.32 93.472C370.32 92.703 370.575 92.0469 371.113 91.4597L369.639 90.1083C368.769 91.0571 368.32 92.193 368.32 93.472H370.32ZM371.113 91.4597C371.618 90.9085 372.242 90.632 373.064 90.632V88.632C371.71 88.632 370.542 89.1235 369.639 90.1083L371.113 91.4597ZM373.064 90.632C373.487 90.632 373.926 90.7252 374.386 90.9298L375.198 89.1022C374.506 88.7948 373.793 88.632 373.064 88.632V90.632ZM374.391 90.9322C376.487 91.8492 378.588 92.5718 380.693 93.0981L381.179 91.1579C379.188 90.6602 377.193 89.9748 375.193 89.0998L374.391 90.9322ZM380.693 93.0981C382.835 93.6336 385.223 93.896 387.848 93.896V91.896C385.353 91.896 383.133 91.6464 381.179 91.1579L380.693 93.0981ZM387.848 93.896C391.474 93.896 394.366 93.3219 396.379 92.0344C398.468 90.6982 399.504 88.6614 399.504 86.08H397.504C397.504 88.0426 396.764 89.4138 395.301 90.3496C393.762 91.3341 391.326 91.896 387.848 91.896V93.896ZM399.504 86.08C399.504 85.1418 399.234 84.282 398.683 83.5397C398.141 82.8098 397.365 82.2449 396.427 81.812L395.589 83.628C396.315 83.9631 396.787 84.3422 397.077 84.7323C397.358 85.11 397.504 85.5462 397.504 86.08H399.504ZM396.441 81.8185C394.747 81.0055 392.01 80.1219 388.29 79.1599L387.79 81.0961C391.494 82.0541 394.069 82.8985 395.575 83.6215L396.441 81.8185ZM388.271 79.155C384.521 78.2652 381.431 77.3492 378.991 76.4107L378.273 78.2773C380.825 79.2588 384.007 80.1988 387.809 81.101L388.271 79.155ZM378.999 76.4138C376.706 75.5086 374.718 74.1536 373.027 72.3417L371.565 73.7063C373.458 75.7344 375.694 77.2593 378.265 78.2742L378.999 76.4138ZM373.05 72.3672C371.513 70.6026 370.704 68.2611 370.704 65.248H368.704C368.704 68.6349 369.623 71.4774 371.542 73.6808L373.05 72.3672ZM370.704 65.248C370.704 61.0387 372.193 57.6701 375.165 55.0547L373.843 53.5533C370.415 56.5699 368.704 60.4973 368.704 65.248H370.704ZM375.157 55.0612C378.179 52.454 382.553 51.08 388.424 51.08V49.08C382.263 49.08 377.357 50.5219 373.851 53.5468L375.157 55.0612ZM388.424 51.08C393.242 51.08 397.764 51.8617 401.999 53.4186L402.689 51.5414C398.22 49.8983 393.462 49.08 388.424 49.08V51.08ZM402.069 53.4415C402.76 53.6387 403.215 53.9837 403.516 54.4569L405.204 53.3831C404.609 52.4483 403.72 51.8332 402.619 51.5185L402.069 53.4415ZM403.551 54.5082C403.956 55.065 404.128 55.599 404.128 56.128H406.128C406.128 55.121 405.788 54.183 405.169 53.3318L403.551 54.5082ZM404.128 56.128C404.128 56.8694 403.862 57.5158 403.269 58.1089L404.683 59.5231C405.626 58.5802 406.128 57.4346 406.128 56.128H404.128ZM403.239 58.1403C402.734 58.6915 402.11 58.968 401.288 58.968V60.968C402.642 60.968 403.81 60.4765 404.713 59.4917L403.239 58.1403ZM401.288 58.968C401.085 58.968 400.759 58.9251 400.283 58.8059L399.797 60.7461C400.345 60.8829 400.851 60.968 401.288 60.968V58.968ZM400.336 58.8209C396.536 57.6417 392.789 57.048 389.096 57.048V59.048C392.571 59.048 396.12 59.6063 399.744 60.7311L400.336 58.8209ZM389.096 57.048C385.532 57.048 382.598 57.7057 380.394 59.1277L381.478 60.8083C383.242 59.6703 385.748 59.048 389.096 59.048V57.048ZM380.401 59.1232C378.241 60.4911 377.056 62.3865 377.056 64.768H379.056C379.056 63.1815 379.791 61.8769 381.471 60.8128L380.401 59.1232ZM377.056 64.768C377.056 65.8889 377.32 66.9134 377.884 67.8009C378.448 68.6859 379.271 69.3737 380.297 69.8864L381.191 68.0976C380.425 67.7143 379.904 67.2501 379.572 66.7271C379.24 66.2066 379.056 65.5671 379.056 64.768H377.056ZM380.297 69.8864C382.202 70.8391 385.084 71.724 388.881 72.5606L389.311 70.6074C385.556 69.78 382.87 68.9369 381.191 68.0976L380.297 69.8864ZM388.85 72.5532C392.602 73.5071 395.626 74.4542 397.936 75.3907L398.688 73.5373C396.262 72.5538 393.142 71.5809 389.342 70.6148L388.85 72.5532ZM397.958 75.3993C400.162 76.2332 402.037 77.5708 403.594 79.4266L405.126 78.1414C403.355 76.0292 401.198 74.4868 398.666 73.5287L397.958 75.3993ZM403.606 79.4408C405.137 81.1985 405.952 83.5995 405.952 86.752H407.952C407.952 83.2485 407.039 80.3375 405.114 78.1272L403.606 79.4408ZM405.952 86.752C405.952 90.5382 404.462 93.6509 401.42 96.1561L402.692 97.6999C406.178 94.8291 407.952 91.1578 407.952 86.752H405.952ZM401.413 96.1623C398.454 98.6474 394.172 99.96 388.424 99.96V101.96C394.452 101.96 399.258 100.585 402.699 97.6937L401.413 96.1623Z" fill="#4c5d67"></path><path d="M422 100.288C420.528 100.288 419.248 99.776 418.16 98.752C417.136 97.664 416.624 96.384 416.624 94.912V94.336C416.624 92.864 417.136 91.616 418.16 90.592C419.248 89.504 420.528 88.96 422 88.96H422.96C424.432 88.96 425.68 89.504 426.704 90.592C427.792 91.616 428.336 92.864 428.336 94.336V94.912C428.336 96.384 427.792 97.664 426.704 98.752C425.68 99.776 424.432 100.288 422.96 100.288H422Z" fill="#4c5d67"></path><path d="M418.16 98.752L417.432 99.4374L417.453 99.4594L417.475 99.4802L418.16 98.752ZM418.16 90.592L417.453 89.8849L417.453 89.8849L418.16 90.592ZM426.704 90.592L425.976 91.2774L425.997 91.2994L426.019 91.3202L426.704 90.592ZM426.704 98.752L425.997 98.0449L425.997 98.0449L426.704 98.752ZM422 99.288C420.787 99.288 419.751 98.8761 418.845 98.0238L417.475 99.4802C418.745 100.676 420.269 101.288 422 101.288V99.288ZM418.888 98.0666C418.036 97.161 417.624 96.125 417.624 94.912H415.624C415.624 96.643 416.236 98.167 417.432 99.4374L418.888 98.0666ZM417.624 94.912V94.336H415.624V94.912H417.624ZM417.624 94.336C417.624 93.1243 418.034 92.1321 418.867 91.2991L417.453 89.8849C416.238 91.0999 415.624 92.6037 415.624 94.336H417.624ZM418.867 91.2991C419.777 90.3892 420.806 89.96 422 89.96V87.96C420.25 87.96 418.719 88.6188 417.453 89.8849L418.867 91.2991ZM422 89.96H422.96V87.96H422V89.96ZM422.96 89.96C424.152 89.96 425.138 90.3867 425.976 91.2774L427.432 89.9066C426.222 88.6213 424.712 87.96 422.96 87.96V89.96ZM426.019 91.3202C426.909 92.1584 427.336 93.1444 427.336 94.336H429.336C429.336 92.5836 428.675 91.0736 427.389 89.8638L426.019 91.3202ZM427.336 94.336V94.912H429.336V94.336H427.336ZM427.336 94.912C427.336 96.1057 426.907 97.135 425.997 98.0449L427.411 99.4591C428.677 98.193 429.336 96.6623 429.336 94.912H427.336ZM425.997 98.0449C425.164 98.8779 424.172 99.288 422.96 99.288V101.288C424.692 101.288 426.196 100.674 427.411 99.4591L425.997 98.0449ZM422.96 99.288H422V101.288H422.96V99.288Z" fill="#4c5d67"></path><path d="M445.552 100.48C444.336 100.48 443.312 100.064 442.48 99.232C441.648 98.4 441.232 97.376 441.232 96.16V58.528H435.568C434.544 58.528 433.648 58.176 432.88 57.472C432.176 56.704 431.824 55.808 431.824 54.784C431.824 53.696 432.176 52.8 432.88 52.096C433.648 51.392 434.544 51.04 435.568 51.04H441.232V45.472C441.232 41.632 441.904 38.496 443.248 36.064C444.656 33.568 446.448 31.776 448.624 30.688C450.864 29.536 453.2 28.96 455.632 28.96C458.64 28.96 461.424 29.6 463.984 30.88C464.624 31.2 465.136 31.68 465.52 32.32C465.968 32.896 466.192 33.536 466.192 34.24C466.192 35.2 465.84 36.064 465.136 36.832C464.432 37.536 463.6 37.888 462.64 37.888C461.936 37.888 461.2 37.792 460.432 37.6C458.896 37.408 458.032 37.312 457.84 37.312C455.216 37.312 453.232 37.92 451.888 39.136C450.608 40.352 449.968 42.56 449.968 45.76V51.04H461.968C463.056 51.04 463.952 51.392 464.656 52.096C465.36 52.8 465.712 53.696 465.712 54.784C465.712 55.808 465.36 56.704 464.656 57.472C463.952 58.176 463.056 58.528 461.968 58.528H449.968V96.16C449.968 97.376 449.52 98.4 448.624 99.232C447.792 100.064 446.768 100.48 445.552 100.48Z" fill="#4c5d67"></path><path d="M442.48 99.232L443.187 98.5249L443.187 98.5249L442.48 99.232ZM441.232 58.528H442.232V57.528H441.232V58.528ZM432.88 57.472L432.143 58.1477L432.172 58.1798L432.204 58.2092L432.88 57.472ZM432.88 52.096L432.204 51.3588L432.188 51.3735L432.173 51.3889L432.88 52.096ZM441.232 51.04V52.04H442.232V51.04H441.232ZM443.248 36.064L442.377 35.5727L442.373 35.5803L443.248 36.064ZM448.624 30.688L449.071 31.5825L449.081 31.5773L448.624 30.688ZM463.984 30.88L463.537 31.7744L463.537 31.7744L463.984 30.88ZM465.52 32.32L464.663 32.8345L464.694 32.8863L464.731 32.9339L465.52 32.32ZM465.136 36.832L465.843 37.5391L465.858 37.5237L465.873 37.5077L465.136 36.832ZM460.432 37.6L460.675 36.6299L460.616 36.6152L460.556 36.6077L460.432 37.6ZM451.888 39.136L451.217 38.3945L451.208 38.4026L451.199 38.411L451.888 39.136ZM449.968 51.04H448.968V52.04H449.968V51.04ZM464.656 52.096L463.949 52.8031L463.949 52.8031L464.656 52.096ZM464.656 57.472L465.363 58.1791L465.378 58.1637L465.393 58.1477L464.656 57.472ZM449.968 58.528V57.528H448.968V58.528H449.968ZM448.624 99.232L447.944 98.4992L447.93 98.5118L447.917 98.5249L448.624 99.232ZM445.552 99.48C444.591 99.48 443.825 99.1625 443.187 98.5249L441.773 99.9391C442.799 100.966 444.081 101.48 445.552 101.48V99.48ZM443.187 98.5249C442.55 97.8873 442.232 97.1207 442.232 96.16H440.232C440.232 97.6313 440.746 98.9127 441.773 99.9391L443.187 98.5249ZM442.232 96.16V58.528H440.232V96.16H442.232ZM441.232 57.528H435.568V59.528H441.232V57.528ZM435.568 57.528C434.799 57.528 434.143 57.273 433.556 56.7348L432.204 58.2092C433.153 59.079 434.289 59.528 435.568 59.528V57.528ZM433.617 56.7963C433.079 56.2091 432.824 55.553 432.824 54.784H430.824C430.824 56.063 431.273 57.1989 432.143 58.1477L433.617 56.7963ZM432.824 54.784C432.824 53.9341 433.089 53.3012 433.587 52.8031L432.173 51.3889C431.263 52.2988 430.824 53.4579 430.824 54.784H432.824ZM433.556 52.8332C434.143 52.2949 434.799 52.04 435.568 52.04V50.04C434.289 50.04 433.153 50.489 432.204 51.3588L433.556 52.8332ZM435.568 52.04H441.232V50.04H435.568V52.04ZM442.232 51.04V45.472H440.232V51.04H442.232ZM442.232 45.472C442.232 41.7397 442.886 38.7858 444.123 36.5477L442.373 35.5803C440.922 38.2062 440.232 41.5243 440.232 45.472H442.232ZM444.119 36.5553C445.447 34.2013 447.103 32.5663 449.071 31.5824L448.177 29.7936C445.793 30.9856 443.865 32.9346 442.377 35.5727L444.119 36.5553ZM449.081 31.5773C451.185 30.4954 453.365 29.96 455.632 29.96V27.96C453.035 27.96 450.543 28.5766 448.167 29.7987L449.081 31.5773ZM455.632 29.96C458.493 29.96 461.123 30.5674 463.537 31.7744L464.431 29.9856C461.725 28.6326 458.787 27.96 455.632 27.96V29.96ZM463.537 31.7744C463.999 32.0056 464.372 32.3502 464.663 32.8345L466.377 31.8055C465.9 31.0098 465.249 30.3944 464.431 29.9856L463.537 31.7744ZM464.731 32.9339C465.047 33.3413 465.192 33.767 465.192 34.24H467.192C467.192 33.305 466.889 32.4507 466.309 31.7061L464.731 32.9339ZM465.192 34.24C465.192 34.9275 464.949 35.5556 464.399 36.1563L465.873 37.5077C466.731 36.5724 467.192 35.4725 467.192 34.24H465.192ZM464.429 36.1249C463.905 36.6491 463.324 36.888 462.64 36.888V38.888C463.876 38.888 464.959 38.4229 465.843 37.5391L464.429 36.1249ZM462.64 36.888C462.027 36.888 461.373 36.8044 460.675 36.6299L460.189 38.5701C461.027 38.7796 461.845 38.888 462.64 38.888V36.888ZM460.556 36.6077C459.786 36.5115 459.181 36.4389 458.742 36.3901C458.336 36.3449 458.005 36.312 457.84 36.312V38.312C457.836 38.312 457.883 38.3135 458.019 38.3259C458.142 38.337 458.309 38.3542 458.522 38.3779C458.947 38.4251 459.542 38.4965 460.308 38.5923L460.556 36.6077ZM457.84 36.312C455.078 36.312 452.813 36.9509 451.217 38.3945L452.559 39.8775C453.651 38.8891 455.354 38.312 457.84 38.312V36.312ZM451.199 38.411C449.61 39.9211 448.968 42.4902 448.968 45.76H450.968C450.968 42.6298 451.606 40.7829 452.577 39.861L451.199 38.411ZM448.968 45.76V51.04H450.968V45.76H448.968ZM449.968 52.04H461.968V50.04H449.968V52.04ZM461.968 52.04C462.818 52.04 463.451 52.305 463.949 52.8031L465.363 51.3889C464.453 50.479 463.294 50.04 461.968 50.04V52.04ZM463.949 52.8031C464.447 53.3012 464.712 53.9341 464.712 54.784H466.712C466.712 53.4579 466.273 52.2988 465.363 51.3889L463.949 52.8031ZM464.712 54.784C464.712 55.553 464.457 56.2091 463.919 56.7963L465.393 58.1477C466.263 57.1989 466.712 56.063 466.712 54.784H464.712ZM463.949 56.7649C463.451 57.263 462.818 57.528 461.968 57.528V59.528C463.294 59.528 464.453 59.089 465.363 58.1791L463.949 56.7649ZM461.968 57.528H449.968V59.528H461.968V57.528ZM448.968 58.528V96.16H450.968V58.528H448.968ZM448.968 96.16C448.968 97.0962 448.637 97.8552 447.944 98.4992L449.304 99.9648C450.403 98.9448 450.968 97.6558 450.968 96.16H448.968ZM447.917 98.5249C447.279 99.1625 446.513 99.48 445.552 99.48V101.48C447.023 101.48 448.305 100.966 449.331 99.9391L447.917 98.5249Z" fill="#4c5d67"></path><path d="M489.528 122.56C488.376 122.56 487.384 122.144 486.552 121.312C485.784 120.48 485.4 119.488 485.4 118.336C485.4 117.824 485.496 117.312 485.688 116.8L491.928 100.768L473.88 56.8C473.624 56.16 473.496 55.552 473.496 54.976C473.496 53.76 473.912 52.736 474.744 51.904C475.576 51.008 476.6 50.56 477.816 50.56C478.712 50.56 479.512 50.816 480.216 51.328C480.984 51.84 481.528 52.48 481.848 53.248L496.632 89.92L511.704 53.44C512.536 51.52 513.88 50.56 515.736 50.56C516.952 50.56 517.976 51.008 518.808 51.904C519.64 52.736 520.056 53.76 520.056 54.976C520.056 55.552 519.96 56.096 519.768 56.608L493.56 119.584C492.664 121.568 491.32 122.56 489.528 122.56Z" fill="#4c5d67"></path><path d="M486.552 121.312L485.817 121.99L485.831 122.005L485.845 122.019L486.552 121.312ZM485.688 116.8L484.756 116.437L484.752 116.449L485.688 116.8ZM491.928 100.768L492.86 101.131L493.005 100.758L492.853 100.388L491.928 100.768ZM473.88 56.8L472.951 57.1714L472.955 57.1797L473.88 56.8ZM474.744 51.904L475.451 52.6111L475.464 52.598L475.477 52.5844L474.744 51.904ZM480.216 51.328L479.628 52.1367L479.644 52.1487L479.661 52.16L480.216 51.328ZM481.848 53.248L482.776 52.8741L482.771 52.8634L481.848 53.248ZM496.632 89.92L495.705 90.2939L496.621 92.5663L497.556 90.3019L496.632 89.92ZM511.704 53.44L510.786 53.0424L510.783 53.0502L510.78 53.0581L511.704 53.44ZM518.808 51.904L518.075 52.5844L518.088 52.598L518.101 52.6111L518.808 51.904ZM519.768 56.608L520.691 56.9922L520.698 56.9758L520.704 56.9591L519.768 56.608ZM493.56 119.584L494.471 119.996L494.478 119.982L494.483 119.968L493.56 119.584ZM489.528 121.56C488.648 121.56 487.908 121.254 487.259 120.605L485.845 122.019C486.86 123.034 488.104 123.56 489.528 123.56V121.56ZM487.287 120.634C486.693 119.99 486.4 119.241 486.4 118.336H484.4C484.4 119.735 484.875 120.97 485.817 121.99L487.287 120.634ZM486.4 118.336C486.4 117.952 486.472 117.559 486.624 117.151L484.752 116.449C484.52 117.065 484.4 117.696 484.4 118.336H486.4ZM486.62 117.163L492.86 101.131L490.996 100.405L484.756 116.437L486.62 117.163ZM492.853 100.388L474.805 56.4203L472.955 57.1797L491.003 101.148L492.853 100.388ZM474.808 56.4286C474.591 55.884 474.496 55.4024 474.496 54.976H472.496C472.496 55.7016 472.657 56.436 472.952 57.1714L474.808 56.4286ZM474.496 54.976C474.496 54.0153 474.814 53.2487 475.451 52.6111L474.037 51.1969C473.01 52.2233 472.496 53.5047 472.496 54.976H474.496ZM475.477 52.5844C476.121 51.8909 476.88 51.56 477.816 51.56V49.56C476.32 49.56 475.031 50.1251 474.011 51.2235L475.477 52.5844ZM477.816 51.56C478.507 51.56 479.1 51.7529 479.628 52.1367L480.804 50.5193C479.924 49.8791 478.917 49.56 477.816 49.56V51.56ZM479.661 52.16C480.284 52.575 480.689 53.0665 480.925 53.6326L482.771 52.8634C482.367 51.8935 481.684 51.105 480.771 50.4959L479.661 52.16ZM480.921 53.6219L495.705 90.2939L497.559 89.5461L482.775 52.8741L480.921 53.6219ZM497.556 90.3019L512.628 53.8218L510.78 53.0581L495.708 89.5381L497.556 90.3019ZM512.622 53.8376C512.984 53.0004 513.428 52.4434 513.917 52.0937C514.399 51.7496 514.99 51.56 515.736 51.56V49.56C514.626 49.56 513.617 49.8504 512.755 50.4663C511.9 51.0766 511.256 51.9596 510.786 53.0424L512.622 53.8376ZM515.736 51.56C516.672 51.56 517.431 51.8909 518.075 52.5844L519.541 51.2235C518.521 50.1251 517.232 49.56 515.736 49.56V51.56ZM518.101 52.6111C518.738 53.2487 519.056 54.0153 519.056 54.976H521.056C521.056 53.5047 520.542 52.2233 519.515 51.1969L518.101 52.6111ZM519.056 54.976C519.056 55.4386 518.979 55.8631 518.832 56.2569L520.704 56.9591C520.941 56.3289 521.056 55.6654 521.056 54.976H519.056ZM518.845 56.2238L492.637 119.2L494.483 119.968L520.691 56.9922L518.845 56.2238ZM492.649 119.172C492.25 120.054 491.785 120.643 491.286 121.011C490.799 121.371 490.227 121.56 489.528 121.56V123.56C490.621 123.56 491.617 123.253 492.474 122.621C493.319 121.997 493.974 121.098 494.471 119.996L492.649 119.172Z" fill="#4c5d67"></path><path d="M533.712 41.056C532.368 41.056 531.216 40.576 530.256 39.616C529.296 38.656 528.816 37.504 528.816 36.16V35.776C528.816 34.432 529.296 33.28 530.256 32.32C531.216 31.36 532.368 30.88 533.712 30.88H534.288C535.632 30.88 536.784 31.36 537.744 32.32C538.704 33.28 539.184 34.432 539.184 35.776V36.16C539.184 37.504 538.704 38.656 537.744 39.616C536.784 40.576 535.632 41.056 534.288 41.056H533.712ZM533.904 100.48C532.688 100.48 531.664 100.064 530.832 99.232C530 98.4 529.584 97.376 529.584 96.16V54.976C529.584 53.76 530 52.736 530.832 51.904C531.664 51.008 532.688 50.56 533.904 50.56C535.184 50.56 536.24 50.976 537.072 51.808C537.904 52.64 538.32 53.696 538.32 54.976V96.16C538.32 97.376 537.872 98.4 536.976 99.232C536.144 100.064 535.12 100.48 533.904 100.48Z" fill="#4c5d67"></path><path d="M530.256 39.616L529.549 40.3231L529.549 40.3231L530.256 39.616ZM537.744 39.616L538.451 40.3231L538.451 40.3231L537.744 39.616ZM530.832 99.232L531.539 98.5249L531.539 98.5249L530.832 99.232ZM530.832 51.904L531.539 52.6111L531.552 52.598L531.565 52.5844L530.832 51.904ZM536.976 99.232L536.296 98.4992L536.282 98.5118L536.269 98.5249L536.976 99.232ZM533.712 40.056C532.636 40.056 531.738 39.6835 530.963 38.9089L529.549 40.3231C530.694 41.4685 532.1 42.056 533.712 42.056V40.056ZM530.963 38.9089C530.189 38.1343 529.816 37.2358 529.816 36.16H527.816C527.816 37.7722 528.403 39.1777 529.549 40.3231L530.963 38.9089ZM529.816 36.16V35.776H527.816V36.16H529.816ZM529.816 35.776C529.816 34.7002 530.189 33.8017 530.963 33.0271L529.549 31.6129C528.403 32.7583 527.816 34.1638 527.816 35.776H529.816ZM530.963 33.0271C531.738 32.2525 532.636 31.88 533.712 31.88V29.88C532.1 29.88 530.694 30.4675 529.549 31.6129L530.963 33.0271ZM533.712 31.88H534.288V29.88H533.712V31.88ZM534.288 31.88C535.364 31.88 536.262 32.2525 537.037 33.0271L538.451 31.6129C537.306 30.4675 535.9 29.88 534.288 29.88V31.88ZM537.037 33.0271C537.811 33.8017 538.184 34.7002 538.184 35.776H540.184C540.184 34.1638 539.597 32.7583 538.451 31.6129L537.037 33.0271ZM538.184 35.776V36.16H540.184V35.776H538.184ZM538.184 36.16C538.184 37.2358 537.811 38.1343 537.037 38.9089L538.451 40.3231C539.597 39.1777 540.184 37.7722 540.184 36.16H538.184ZM537.037 38.9089C536.262 39.6835 535.364 40.056 534.288 40.056V42.056C535.9 42.056 537.306 41.4685 538.451 40.3231L537.037 38.9089ZM534.288 40.056H533.712V42.056H534.288V40.056ZM533.904 99.48C532.943 99.48 532.177 99.1625 531.539 98.5249L530.125 99.9391C531.151 100.966 532.433 101.48 533.904 101.48V99.48ZM531.539 98.5249C530.902 97.8873 530.584 97.1207 530.584 96.16H528.584C528.584 97.6313 529.098 98.9127 530.125 99.9391L531.539 98.5249ZM530.584 96.16V54.976H528.584V96.16H530.584ZM530.584 54.976C530.584 54.0153 530.902 53.2487 531.539 52.6111L530.125 51.1969C529.098 52.2233 528.584 53.5047 528.584 54.976H530.584ZM531.565 52.5844C532.209 51.8909 532.968 51.56 533.904 51.56V49.56C532.408 49.56 531.119 50.1251 530.099 51.2235L531.565 52.5844ZM533.904 51.56C534.944 51.56 535.738 51.888 536.365 52.5151L537.779 51.1009C536.742 50.0639 535.424 49.56 533.904 49.56V51.56ZM536.365 52.5151C536.992 53.1422 537.32 53.9355 537.32 54.976H539.32C539.32 53.4565 538.816 52.1378 537.779 51.1009L536.365 52.5151ZM537.32 54.976V96.16H539.32V54.976H537.32ZM537.32 96.16C537.32 97.0962 536.989 97.8552 536.296 98.4992L537.656 99.9648C538.755 98.9448 539.32 97.6558 539.32 96.16H537.32ZM536.269 98.5249C535.631 99.1625 534.865 99.48 533.904 99.48V101.48C535.375 101.48 536.657 100.966 537.683 99.9391L536.269 98.5249Z" fill="#4c5d67"></path><path d="M9.51613 97.0645V114.194C9.51613 116.296 11.2203 118 13.3226 118H114.194C116.296 118 118 116.296 118 114.194V13.3226C118 11.2203 116.296 9.51613 114.194 9.51613H97.0645C94.9623 9.51613 93.2581 11.2203 93.2581 13.3226V30.4516H76.129C74.0268 30.4516 72.3226 32.1558 72.3226 34.2581V51.3871H55.1935C53.0913 51.3871 51.3871 53.0913 51.3871 55.1935V72.3226H34.2581C32.1558 72.3226 30.4516 74.0268 30.4516 76.129V93.2581H13.3226C11.2203 93.2581 9.51613 94.9623 9.51613 97.0645Z" fill="#4c5d67"></path><path d="M2.01868 78.7284C0.903792 77.6135 0.903792 75.8059 2.01868 74.691L74.691 2.01868C75.8059 0.903797 77.6135 0.903796 78.7284 2.01868C79.8432 3.13356 79.8432 4.94115 78.7284 6.05603L6.05603 78.7284C4.94114 79.8433 3.13356 79.8433 2.01868 78.7284Z" fill="#4c5d67"></path></svg>