<svg xmlns="http://www.w3.org/2000/svg" viewBox="0 0 295.25 89.08" height="42px" width="100%"><path fill="#230939" d="m139.94 48.55-23.93-19.82V48h-9.51V8.57l23.93 19.82V9.11h9.51v39.44Zm63.07-.54h-9.83V18.17h-8.95V9.12h27.73v9.05h-8.95v29.84Zm43.76 0h-24.63V9.11h24.38v9.05h-14.7v5.88h11.75v8.84h-11.75v6.08h14.96v9.05Zm48.31 0h-11.83l-14.19-18.07h-.5v18.07h-9.9V2.27h14.38c11.1 0 16.24 7.3 16.24 13.8 0 9-7.1 12.16-9.2 12.93l15 19.01Zm-26.52-26.94h5.94c3.46 0 5.2-2.45 5.2-4.8 0-2.69-2.07-4.8-5.2-4.8h-5.94v9.61ZM44.72 48.01h-9.9V23.84L22.47 36.23 10.12 23.84v24.17H.21V0l22.26 22.32L44.72 0v48.01Zm118.77.57c-8.89 0-13.51-4.99-14.29-5.74l4.99-7.08c.78.69 4.32 3.82 8.99 3.82 3.17 0 4.09-1.52 4.09-2.74s-.95-2.38-4.29-3.63l-2.95-1.1c-5.43-2.03-8.89-5.81-8.89-11.44 0-6.9 5.53-12.14 13.38-12.14 7.07 0 11.04 3.4 11.48 3.78l-4.68 7.29c-.96-.66-3.6-2.1-6.53-2.1-2.74 0-3.99 1.17-3.99 2.57 0 1.83 1.62 2.6 4.51 3.68l2.67 1c5.59 2.08 9.11 6.36 9.11 11.49 0 7.03-5.56 12.34-13.6 12.34Z"></path><path fill="#00b6b4" d="M75.6 8.54c11.3 0 20.23 8.96 20.23 20.02S86.9 48.58 75.6 48.58 55.37 39.6 55.37 28.56 64.3 8.54 75.6 8.54Zm10.54 20.02c0-5.88-4.58-10.66-10.54-10.66s-10.54 4.77-10.54 10.66S69.64 39.2 75.6 39.2s10.54-4.76 10.54-10.64Z"></path><path fill="#230939" d="M90.98 83.45c-1.74 0-3.22-.28-4.43-.84-1.21-.56-2.13-1.36-2.76-2.38-.63-1.02-.94-2.22-.94-3.59v-.5h4.1v.6c0 1.1.34 1.95 1.03 2.53.68.58 1.64.88 2.88.88 1.17 0 2.1-.28 2.81-.83.71-.55 1.06-1.43 1.06-2.65 0-.95-.19-1.67-.58-2.17-.39-.5-.89-.84-1.52-1.04s-1.31-.3-2.03-.3h-1.88v-3.31h1.98c.66 0 1.26-.12 1.8-.36s.97-.62 1.29-1.12c.32-.51.48-1.15.48-1.92s-.14-1.36-.43-1.82c-.29-.46-.68-.8-1.19-1.02-.51-.22-1.08-.33-1.72-.33-.68 0-1.29.12-1.82.35-.53.23-.94.58-1.22 1.06-.29.47-.43 1.08-.43 1.8v.53h-4.1v-.83c0-1.26.32-2.35.96-3.29s1.53-1.66 2.66-2.17c1.13-.51 2.43-.76 3.89-.76s2.82.24 3.95.71c1.14.47 2.02 1.17 2.66 2.1.64.93.96 2.06.96 3.41 0 .88-.16 1.65-.48 2.3-.32.65-.76 1.2-1.31 1.64s-1.17.83-1.85 1.16v.13c1.17.35 2.14.99 2.93 1.92.78.93 1.17 2.14 1.17 3.64 0 1.35-.34 2.5-1.01 3.47-.67.97-1.6 1.71-2.79 2.23s-2.56.78-4.1.78Zm19.71 0c-1.23 0-2.34-.18-3.31-.55-.97-.36-1.8-.99-2.48-1.87-.68-.88-1.2-2.08-1.55-3.59-.35-1.51-.53-3.42-.53-5.74s.18-4.23.53-5.74c.35-1.51.87-2.71 1.55-3.59.68-.88 1.51-1.5 2.48-1.87.97-.36 2.07-.55 3.31-.55s2.33.18 3.29.55c.96.36 1.78.99 2.46 1.87.68.88 1.2 2.08 1.55 3.59.35 1.51.53 3.42.53 5.74s-.18 4.23-.53 5.74c-.35 1.51-.87 2.71-1.55 3.59-.68.88-1.5 1.51-2.46 1.87-.96.36-2.06.55-3.29.55Zm0-3.3c1.04 0 1.81-.28 2.33-.84.52-.56.87-1.4 1.06-2.51.19-1.11.28-2.5.28-4.15v-1.72c0-1.7-.09-3.11-.28-4.25-.19-1.13-.54-1.98-1.06-2.55-.52-.56-1.3-.84-2.33-.84s-1.79.28-2.33.84c-.54.56-.9 1.4-1.09 2.51-.19 1.11-.28 2.51-.28 4.18v1.72c0 1.68.09 3.08.28 4.22.19 1.14.55 1.98 1.09 2.55.54.56 1.32.84 2.33.84Zm22.03 8.93c-.82 0-1.48-.06-1.98-.18-.51-.12-.79-.19-.86-.22V85.8h1.85c.46 0 .93-.12 1.39-.36.46-.24.88-.57 1.26-.99s.65-.88.83-1.39l-6.78-17.4h4.23l3.24 8.33c.15.38.31.85.48 1.42.16.57.34 1.16.51 1.77.18.61.32 1.15.43 1.64h.17c.09-.33.19-.71.3-1.12.11-.42.23-.85.35-1.29s.25-.87.38-1.29.24-.78.33-1.09l2.65-8.37h4.1l-5.82 16.5c-.33.93-.7 1.81-1.11 2.65-.41.84-.88 1.58-1.42 2.22a5.82 5.82 0 0 1-1.92 1.5c-.74.36-1.6.55-2.6.55Zm23.38-5.63c-1.85 0-3.4-.33-4.63-.98-1.23-.65-2.16-1.65-2.78-2.99-.62-1.34-.93-3.05-.93-5.13s.31-3.81.93-5.14c.62-1.33 1.54-2.33 2.78-2.98 1.23-.65 2.78-.98 4.63-.98 1.68 0 3.08.31 4.22.94 1.14.63 1.99 1.59 2.56 2.89.57 1.3.86 2.99.86 5.06v1.19H151.9c.04 1.08.21 1.99.5 2.73.29.74.73 1.29 1.34 1.65.61.36 1.41.55 2.4.55.51 0 .98-.07 1.42-.2.44-.13.83-.34 1.16-.61.33-.28.59-.62.78-1.04.19-.42.28-.9.28-1.46h3.97c0 1.1-.19 2.06-.58 2.88-.39.82-.93 1.49-1.62 2.02-.69.53-1.51.93-2.43 1.19-.93.26-1.93.4-3.01.4Zm-4.14-10.94h7.57c0-.73-.08-1.34-.25-1.85-.17-.51-.4-.93-.69-1.26s-.66-.57-1.07-.71c-.42-.14-.89-.22-1.42-.22-.86 0-1.58.14-2.17.43a3 3 0 0 0-1.34 1.32c-.31.59-.52 1.36-.63 2.28Zm20.41 10.94c-.49 0-1.04-.06-1.67-.18a6.01 6.01 0 0 1-1.82-.68c-.58-.33-1.06-.82-1.44-1.47-.38-.65-.56-1.51-.56-2.56 0-1.19.26-2.18.79-2.96s1.27-1.4 2.23-1.85c.96-.45 2.11-.77 3.44-.96 1.33-.19 2.79-.28 4.38-.28v-1.42c0-.51-.08-.96-.23-1.36s-.44-.71-.84-.94c-.41-.23-1.02-.35-1.84-.35s-1.46.1-1.92.3-.78.44-.96.73c-.18.29-.26.58-.26.89v.46h-3.9c-.02-.11-.03-.22-.03-.33v-.4c0-.99.3-1.85.89-2.58.6-.73 1.42-1.28 2.48-1.67 1.06-.39 2.28-.58 3.67-.58 1.59 0 2.89.22 3.92.66 1.03.44 1.79 1.07 2.3 1.89.51.82.76 1.81.76 2.98v8.2c0 .42.12.72.36.89.24.18.51.26.79.26h1.06v2.78c-.22.09-.54.19-.96.31s-.94.18-1.55.18c-.57 0-1.09-.09-1.54-.28-.45-.19-.83-.46-1.14-.81-.31-.35-.53-.77-.66-1.26h-.2c-.38.46-.82.88-1.34 1.24-.52.36-1.12.64-1.82.84-.69.2-1.49.3-2.4.3Zm1.22-3.3c.66 0 1.25-.1 1.77-.3.52-.2.95-.47 1.29-.83.34-.35.61-.78.79-1.29.19-.51.28-1.06.28-1.65v-.79c-1.21 0-2.33.08-3.36.23-1.02.15-1.84.44-2.45.86s-.91 1.01-.91 1.79c0 .4.09.74.28 1.04.19.3.47.53.86.69.39.17.86.25 1.44.25Zm13.43 2.91v-17.4h3.37l.33 2.75h.23c.22-.55.49-1.06.81-1.54.32-.47.73-.86 1.24-1.16s1.12-.45 1.85-.45c.35 0 .68.03.98.1.3.07.52.13.68.2v3.8h-1.22c-.68 0-1.29.09-1.82.28-.53.19-.98.48-1.34.88-.36.4-.63.89-.81 1.49-.18.59-.26 1.29-.26 2.08v8.96h-4.03Zm19.48.39c-1.26 0-2.36-.14-3.31-.41-.95-.28-1.74-.66-2.38-1.14-.64-.48-1.12-1.05-1.44-1.7s-.48-1.36-.48-2.13c0-.11 0-.21.02-.3.01-.09.02-.15.02-.2h3.97v.26c.02.6.21 1.08.56 1.44.35.36.82.62 1.39.78.57.15 1.18.23 1.82.23.57 0 1.12-.06 1.64-.18s.95-.32 1.29-.6c.34-.28.51-.63.51-1.07 0-.57-.22-1.01-.66-1.32-.44-.31-1.02-.56-1.74-.76-.72-.2-1.48-.41-2.3-.63a42 42 0 0 1-2.18-.66c-.73-.24-1.38-.55-1.97-.93-.58-.37-1.06-.86-1.42-1.45-.36-.6-.55-1.33-.55-2.22s.19-1.61.56-2.25.89-1.17 1.55-1.6 1.44-.75 2.35-.98c.9-.22 1.89-.33 2.94-.33s1.98.11 2.83.33c.85.22 1.59.53 2.22.94.63.41 1.11.9 1.45 1.49.34.58.51 1.23.51 1.93 0 .15 0 .31-.02.46-.01.15-.02.24-.02.26h-3.94v-.23c0-.42-.13-.78-.38-1.07-.25-.3-.62-.53-1.09-.71-.47-.18-1.06-.26-1.77-.26-.53 0-.99.04-1.39.13-.4.09-.72.21-.98.36s-.45.33-.58.53-.2.42-.2.66c0 .42.17.75.5.99.33.24.78.45 1.34.63s1.17.36 1.84.56c.79.22 1.61.45 2.45.68.84.23 1.61.52 2.33.88.72.35 1.29.85 1.74 1.49.44.64.66 1.49.66 2.55s-.19 1.88-.58 2.6c-.39.72-.93 1.29-1.62 1.72s-1.51.74-2.45.94-1.96.3-3.06.3Z"></path><path fill="none" stroke="#230c38" stroke-miterlimit="10" stroke-width="3" d="M68.05 72.44H0m295.25 0H227.2"></path></svg>