<svg width="1018" height="248" viewBox="0 0 1018 248" fill="none" xmlns="http://www.w3.org/2000/svg">
<rect width="1018" height="248" fill="transparent"/>
<path d="M309.859 141.736V154.935C309.859 160.293 311.58 164.804 315.021 168.468C315.85 169.334 316.726 170.153 317.646 170.921C318.66 171.754 319.569 172.707 320.355 173.757C320.919 174.557 321.222 175.512 321.223 176.49C321.249 177.168 321.099 177.84 320.788 178.442C320.476 179.044 320.015 179.555 319.447 179.925C318.266 180.743 316.659 181.152 314.624 181.152C312.988 181.152 310.083 181.081 305.909 180.941C301.735 180.8 298.718 180.73 296.857 180.73C294.773 180.73 291.685 180.8 287.593 180.941C283.5 181.081 280.864 181.152 279.683 181.152C275.228 181.152 273 179.601 273 176.5C273 175.257 273.452 174.055 274.271 173.119C275.101 172.114 276.069 171.23 277.146 170.494C278.416 169.553 279.505 168.389 280.36 167.06C281.47 165.4 282.167 163.499 282.391 161.515C283.069 157.23 283.407 143.581 283.407 120.568C283.407 102.973 283.294 92.5672 283.069 89.3516C282.902 87.1403 282.432 84.9624 281.67 82.8796C281.132 81.3427 280.33 79.9114 279.3 78.65C278.477 77.7143 277.602 76.8248 276.68 75.9857C275.839 75.2343 275.112 74.3649 274.521 73.4047C273.95 72.4454 273.658 71.3461 273.677 70.2301C273.677 66.9033 275.707 65.2399 279.766 65.2399C282.534 65.2399 285.919 65.3103 289.923 65.4509C293.927 65.5916 297.648 65.6619 301.086 65.6619C304.073 65.6619 308.768 65.5638 315.173 65.3675C321.578 65.1712 326.604 65.0845 330.252 65.1074C342.774 65.1074 352.517 67.6884 359.481 72.8503C366.446 78.0122 369.928 85.7256 369.928 95.9904C369.928 109.356 361.694 118.916 345.227 124.67C344.491 125.063 344.128 125.46 344.128 125.853C344.128 126.417 344.521 126.898 345.311 127.291C350.671 130.125 355.427 133.976 359.314 138.63C363.24 143.311 367.173 149.232 371.115 156.392C374.779 163.223 377.994 167.707 380.762 169.847C381.252 170.298 381.974 170.877 382.872 171.579C383.77 172.28 384.368 172.781 384.653 173.051C385.003 173.439 385.288 173.882 385.497 174.361C385.789 175.013 385.934 175.722 385.919 176.436C385.919 179.596 384.17 181.175 380.673 181.171C379.545 181.171 376.908 181.101 372.764 180.96C368.619 180.82 365.839 180.749 364.422 180.749C361.655 180.749 358.384 180.82 354.609 180.96C350.834 181.101 348.719 181.171 348.264 181.171C346.233 181.171 344.583 180.692 343.314 179.734C342.73 179.342 342.251 178.814 341.919 178.194C341.588 177.575 341.413 176.884 341.41 176.181C341.506 174.914 341.851 173.679 342.425 172.545C343.076 171.139 343.422 169.61 343.441 168.061C343.441 163.38 341.509 157.627 337.646 150.804C333.783 143.98 329.877 139.157 325.929 136.334C324.294 135.37 322.504 134.698 320.64 134.346C319.07 133.986 317.47 133.774 315.86 133.713C311.86 133.704 309.859 136.378 309.859 141.736ZM335.031 113.14C338.502 109.868 340.235 105.3 340.232 99.435C340.229 93.5698 338.34 88.8888 334.565 85.3919C330.787 81.895 325.88 80.145 319.845 80.1417C315.389 80.1417 312.627 80.7485 311.557 81.9621C310.487 83.1757 309.948 86.3765 309.938 91.5646V108.144C309.938 111.703 310.643 114.242 312.053 115.76C313.463 117.278 316.395 118.04 320.85 118.046C326.833 118.046 331.56 116.411 335.031 113.14Z" fill="#532A21"/>
<path d="M453.347 135.136C449.059 137.56 443.066 139.435 435.369 140.76C427.995 142.051 420.552 142.913 413.078 143.34C411.609 143.399 410.876 143.936 410.879 144.95C410.922 146.836 411.353 148.694 412.145 150.406C413.089 152.503 414.329 154.455 415.825 156.201C417.435 158.121 419.705 159.701 422.636 160.941C425.777 162.222 429.145 162.854 432.538 162.801C442.351 162.801 450.19 158.993 456.056 151.378C457.297 150.141 458.426 149.518 459.441 149.518C461.129 149.518 461.975 151.126 461.978 154.341C461.978 157.217 461.146 160.262 459.481 163.478C457.678 166.879 455.334 169.964 452.542 172.614C449.598 175.489 445.673 177.872 440.766 179.763C435.701 181.687 430.321 182.648 424.903 182.599C412.041 182.599 401.817 178.651 394.231 170.754C386.645 162.858 382.852 152.565 382.852 139.876C382.776 131.799 384.655 123.823 388.328 116.628C391.907 109.619 397.338 103.724 404.03 99.5822C410.856 95.297 418.583 93.1544 427.209 93.1544C431.402 93.1121 435.574 93.7552 439.559 95.0582C442.982 96.1339 446.179 97.825 448.995 100.048C451.483 102.081 453.652 104.476 455.428 107.153C458.742 112.066 460.523 117.852 460.545 123.777C460.542 128.825 458.143 132.611 453.347 135.136ZM437.528 119.926C437.528 115.98 436.314 112.696 433.887 110.073C432.737 108.799 431.325 107.788 429.748 107.111C428.171 106.433 426.466 106.105 424.751 106.147C419.896 106.147 415.85 108.234 412.611 112.408C409.385 116.532 407.669 121.638 407.749 126.873C407.749 130.2 408.848 131.864 411.046 131.864C414.432 131.864 418.732 131.229 423.946 129.96C429.16 128.691 432.955 127.014 435.33 124.93C436.035 124.3 436.595 123.525 436.972 122.658C437.349 121.79 437.534 120.851 437.513 119.906L437.528 119.926Z" fill="#532A21"/>
<path d="M547.915 106.712C548.253 106.712 549.235 106.005 550.859 104.592C552.483 103.179 554.357 101.648 556.443 99.9404C558.528 98.2328 561.349 96.697 564.907 95.2888C568.404 93.8904 572.136 93.1726 575.903 93.174C593.331 93.174 602.046 103.89 602.046 125.323C602.046 130.622 601.692 137.376 600.986 145.583C600.279 153.79 599.926 158.542 599.926 159.837C599.926 164.296 601.225 167.567 603.822 169.65C604.313 170.043 605.019 170.539 605.893 171.122C606.551 171.555 607.186 172.022 607.796 172.521C608.252 172.938 608.625 173.437 608.896 173.993C609.239 174.691 609.407 175.462 609.386 176.24C609.386 179.511 607.044 181.147 602.36 181.147C600.953 181.147 598.838 181.077 596.015 180.936C593.192 180.795 591.05 180.725 589.588 180.725C587.667 180.725 585.497 180.795 583.076 180.936C580.656 181.077 578.569 181.147 576.815 181.147C573.597 181.147 571.989 179.596 571.992 176.495C571.992 174.533 572.646 171.768 573.955 168.203C574.805 165.668 575.58 160.925 576.28 153.973C576.997 146.927 577.356 139.849 577.355 132.766C577.355 117.719 572.73 110.195 563.479 110.195C560.152 110.195 556.966 111.69 553.92 114.68C550.875 117.67 549.364 121.81 549.387 127.099C549.387 132.398 549.287 138.856 549.087 146.471C548.888 154.086 548.79 158.542 548.793 159.837C548.793 164.577 549.809 167.848 551.84 169.65C552.291 170.043 552.926 170.55 553.744 171.171C554.562 171.793 555.139 172.259 555.476 172.57C555.889 172.983 556.221 173.469 556.457 174.003C556.777 174.708 556.935 175.476 556.918 176.25C556.918 179.521 554.607 181.157 549.985 181.157C548.513 181.157 546.539 181.086 544.063 180.946C541.587 180.805 539.64 180.735 538.224 180.735C536.304 180.735 534.132 180.805 531.708 180.946C529.284 181.086 527.197 181.157 525.447 181.157C522.234 181.157 520.627 179.606 520.623 176.505C520.623 174.542 521.278 171.778 522.586 168.213C523.43 165.733 524.15 161.052 524.745 154.17C525.34 147.287 525.636 140.153 525.633 132.766C525.633 117.719 521.063 110.195 511.924 110.195C508.653 110.195 505.452 111.748 502.321 114.852C500.815 116.291 499.621 118.025 498.814 119.945C498.007 121.866 497.604 123.932 497.63 126.015V157.492C497.63 160.818 497.841 163.299 498.263 164.935C498.688 166.584 499.516 168.102 500.673 169.351C501.351 170.066 502.088 170.722 502.876 171.314C503.722 171.926 504.452 172.686 505.03 173.556C505.485 174.4 505.704 175.351 505.663 176.309C505.663 179.58 503.52 181.216 499.235 181.216C497.655 181.216 495.427 181.145 492.552 181.005C489.677 180.864 487.534 180.794 486.124 180.794C484.371 180.794 481.719 180.864 478.17 181.005C474.621 181.145 471.829 181.216 469.794 181.216C466.242 181.216 464.466 179.665 464.466 176.564C464.466 175.716 464.653 174.878 465.015 174.111C465.299 173.457 465.668 172.845 466.114 172.29C466.621 171.726 467.158 171.19 467.724 170.686C468.426 170.038 468.862 169.626 469.034 169.459C472.076 166.073 473.599 161.701 473.602 156.343V119.739C473.602 116.016 471.881 113.365 468.44 111.785C467.763 111.393 467.228 111.054 466.831 110.77C466.342 110.382 465.927 109.91 465.604 109.376C465.184 108.735 464.964 107.983 464.971 107.217C464.952 106.447 465.142 105.685 465.521 105.014C465.988 104.301 466.63 103.72 467.385 103.326C468.172 102.859 468.992 102.449 469.839 102.099C470.599 101.79 471.728 101.349 473.219 100.789C474.711 100.23 475.943 99.7441 476.899 99.3467C478.591 98.5583 480.269 97.7405 481.934 96.8933C483.597 96.0493 484.809 95.4213 485.575 95.0337C486.309 94.6488 487.072 94.3207 487.856 94.0523C488.55 93.8088 489.28 93.6795 490.015 93.6696C491.649 93.6696 492.959 94.0965 493.862 94.9404C494.765 95.7844 495.516 97.2515 496.021 99.3565C496.134 99.7539 496.276 100.387 496.443 101.26C496.61 102.134 496.752 102.786 496.865 103.223C496.978 103.66 497.12 104.126 497.292 104.661C497.396 105.075 497.583 105.464 497.841 105.804C497.915 105.904 498.01 105.986 498.12 106.044C498.229 106.103 498.35 106.136 498.474 106.143C498.813 106.143 499.755 105.465 501.31 104.111C502.866 102.757 504.622 101.275 506.595 99.6705C508.986 97.8213 511.63 96.3243 514.446 95.225C517.579 93.9027 520.942 93.2139 524.343 93.1985C533.028 93.1985 539.627 96.3568 544.141 102.673C544.48 103.071 544.833 103.517 545.196 104.028C545.559 104.538 545.844 104.916 546.045 105.166C546.246 105.416 546.452 105.691 546.678 105.971C546.851 106.206 547.065 106.407 547.311 106.564C547.497 106.662 547.704 106.713 547.915 106.712Z" fill="#532A21"/>
<path d="M611.702 138.517C611.702 125.151 615.691 114.252 623.67 105.819C631.648 97.3856 641.815 93.1707 654.17 93.174C665.666 93.1042 676.751 97.4494 685.137 105.313C689.252 109.18 692.523 114.114 694.95 120.117C697.439 126.462 698.675 133.228 698.591 140.043C698.591 146.913 697.446 153.089 695.156 158.571C692.866 164.053 689.746 168.509 685.794 171.937C681.765 175.412 677.099 178.07 672.055 179.763C666.63 181.578 660.941 182.478 655.22 182.428C642.135 182.428 631.617 178.325 623.665 170.121C615.713 161.917 611.725 151.383 611.702 138.517ZM651.888 106.373C647.826 106.373 644.469 108.262 641.82 112.04C639.17 115.819 637.845 121.656 637.845 129.553C637.845 139.647 639.451 148.192 642.664 155.185C644.528 159.022 646.856 161.942 649.646 163.944C652.193 165.863 655.289 166.915 658.478 166.947C662.76 166.947 666.34 165.269 669.219 161.912C672.098 158.556 673.537 153.381 673.537 146.388C673.501 141.735 672.976 137.099 671.972 132.555C671.06 128.084 669.655 123.728 667.781 119.567C665.698 115.282 663.259 112.011 660.465 109.754C657.672 107.497 654.819 106.37 651.908 106.373H651.888Z" fill="#532A21"/>
<path d="M772.231 75.8287C772.231 71.1476 774.163 66.8477 778.026 62.9289C781.889 59.01 786.219 57.0473 791.014 57.0408C794.452 57.0408 797.329 58.0843 799.645 60.1713C801.961 62.2583 803.117 64.9946 803.114 68.3802C803.114 73.0024 801.027 77.021 796.853 80.4361C792.956 83.7478 788.007 85.5622 782.893 85.5538C779.393 85.5538 776.742 84.6657 774.94 82.8895C773.137 81.1132 772.234 78.7596 772.231 75.8287Z" fill="#532A21"/>
<path d="M888.845 117.61C886.928 122.516 884.051 130.186 880.214 140.617C876.377 151.049 874.376 156.497 874.213 156.962C873.935 157.698 873.47 158.924 872.819 160.642C872.167 162.364 871.705 163.586 871.421 164.322C871.136 165.058 870.704 166.098 870.111 167.452C869.643 168.551 869.121 169.625 868.545 170.671C868.094 171.461 867.564 172.359 866.941 173.375C866.327 174.378 865.649 175.34 864.91 176.255C863.67 177.832 861.666 179.184 858.899 180.313C856.495 181.364 853.911 181.939 851.288 182.006C849.583 182.035 847.906 181.564 846.465 180.651C845.798 180.117 845.263 179.437 844.9 178.664C844.365 177.683 843.919 176.814 843.629 176.083C843.34 175.352 842.854 174.12 842.235 172.447C842.121 172.12 841.007 169.384 838.894 164.238C836.781 159.093 834.488 153.509 832.015 147.487C829.535 141.451 827.533 136.487 826.009 132.595C820.294 118.679 815.917 110.276 812.878 107.384C811.691 106.201 810.877 105.372 810.425 104.891C809.844 104.214 809.36 103.46 808.987 102.649C808.489 101.68 808.227 100.608 808.222 99.5184C808.19 98.8413 808.305 98.1653 808.56 97.5369C808.814 96.9085 809.201 96.3424 809.694 95.8776C810.675 94.978 812.071 94.5283 813.879 94.5283C815.459 94.5283 817.689 94.5986 820.567 94.7392C823.446 94.8799 825.736 94.9502 827.437 94.9502C828.961 94.9502 831.514 94.8799 835.096 94.7392C838.678 94.5986 841.315 94.5283 843.006 94.5283C845.037 94.5283 846.545 94.9224 847.53 95.7108C848.514 96.4991 849.005 97.9711 849.002 100.127C849.002 101.026 848.241 102.507 846.72 104.567C845.199 106.628 844.437 108.56 844.434 110.362C844.434 113.238 846.746 120.434 851.372 131.952C855.951 143.515 858.716 150.002 859.664 151.412C860.003 151.903 860.282 152.178 860.508 152.178C861.918 152.178 865.134 143.885 870.155 127.3C872.467 120.195 873.624 115.374 873.624 112.835C873.639 111.268 873.291 109.718 872.608 108.306C872.054 107.11 871.312 106.01 870.41 105.048C869.586 104.224 868.847 103.318 868.207 102.345C867.584 101.486 867.23 100.461 867.191 99.4007C867.161 98.75 867.271 98.1006 867.512 97.4956C867.753 96.8906 868.12 96.344 868.59 95.8923C869.54 95.009 870.801 94.5379 872.098 94.5822C873.398 94.5822 875.533 94.6509 878.531 94.7932C881.529 94.9355 883.575 95.0042 884.703 95.0042C886.116 95.0042 887.947 94.9306 890.204 94.7932C892.461 94.6558 893.982 94.5822 894.772 94.5822C898.043 94.5822 899.679 96.0543 899.679 98.9983C899.699 100.266 899.359 101.513 898.697 102.595C898.043 103.646 897.229 104.588 896.283 105.387C895.328 106.208 894.144 107.688 892.731 109.827C891.163 112.276 889.86 114.885 888.845 117.61Z" fill="#532A21"/>
<path d="M964.369 135.136C960.084 137.56 954.091 139.435 946.391 140.76C939.017 142.051 931.574 142.913 924.099 143.34C922.631 143.399 921.898 143.936 921.901 144.95C921.944 146.836 922.375 148.694 923.167 150.406C924.111 152.505 925.352 154.456 926.852 156.201C928.455 158.121 930.725 159.701 933.663 160.941C936.802 162.222 940.169 162.855 943.56 162.801C953.373 162.801 961.212 158.993 967.078 151.378C968.319 150.141 969.448 149.518 970.463 149.518C972.154 149.518 973 151.126 973 154.341C973 157.217 972.168 160.262 970.503 163.478C968.7 166.877 966.358 169.963 963.569 172.614C960.606 175.489 956.68 177.872 951.793 179.763C946.728 181.687 941.348 182.648 935.93 182.599C923.067 182.599 912.845 178.651 905.263 170.754C897.68 162.858 893.887 152.565 893.884 139.876C893.805 131.799 895.682 123.823 899.355 116.628C902.932 109.618 908.363 103.722 915.056 99.5822C921.883 95.297 929.61 93.1544 938.236 93.1544C942.43 93.1126 946.604 93.7556 950.591 95.0582C954.012 96.1333 957.208 97.8244 960.022 100.048C962.513 102.087 964.683 104.488 966.459 107.173C969.773 112.085 971.554 117.871 971.577 123.797C971.567 128.831 969.165 132.611 964.369 135.136ZM948.55 119.926C948.55 115.981 947.338 112.696 944.914 110.073C943.763 108.799 942.351 107.789 940.775 107.112C939.198 106.434 937.493 106.105 935.777 106.147C930.923 106.147 926.875 108.234 923.633 112.408C920.407 116.533 918.69 121.638 918.771 126.873C918.771 130.2 919.87 131.864 922.068 131.864C925.454 131.864 929.755 131.229 934.973 129.96C940.19 128.691 943.98 127.004 946.342 124.901C947.048 124.276 947.61 123.507 947.992 122.645C948.373 121.783 948.563 120.848 948.55 119.906V119.926Z" fill="#532A21"/>
<path d="M808.359 173.502C807.726 172.619 806.936 171.859 806.029 171.26C805.19 170.685 804.41 170.028 803.703 169.297C802.371 168.003 801.345 166.427 800.7 164.685C800.105 163.02 799.809 160.609 799.812 157.452V130.396C799.812 123.527 799.952 116.703 800.234 109.926C800.515 103.148 800.657 99.4252 800.661 98.7578C800.661 95.0353 798.862 93.174 795.263 93.174L748.325 96.2947L743.885 96.5155C738.926 96.7706 736.191 96.8966 735.681 96.8933C735.19 96.8933 734.92 96.6725 734.92 96.2162L735.342 89.3467C735.624 84.718 735.764 81.7004 735.764 80.2938C735.764 77.811 735.257 75.935 734.243 74.6658C733.79 74.0647 733.201 73.579 732.525 73.2482C731.849 72.9174 731.105 72.7508 730.352 72.762C728.828 72.762 727.519 73.4669 726.427 74.8768C724.954 76.8614 723.611 78.9397 722.408 81.0985C721.028 83.5635 719.352 85.8506 717.418 87.9091C713.581 91.7429 708.511 95.2397 702.207 98.3997C699.557 99.7081 698.233 102.189 698.233 105.843C698.197 106.528 698.372 107.208 698.734 107.79C699.097 108.373 699.629 108.83 700.259 109.101C701.613 109.755 703.758 110.246 706.692 110.573C708.046 110.806 709.004 111.371 709.567 112.271C710.13 113.171 710.413 114.523 710.416 116.329C710.416 119.767 710.231 125.943 709.862 134.857C709.492 143.771 709.309 149.412 709.312 151.78C709.312 172.199 717.294 182.406 733.257 182.403C739.855 182.403 745.381 180.852 749.837 177.751C754.292 174.65 757.508 171.098 759.483 167.094C760.668 164.778 761.26 162.662 761.26 160.745C761.26 158.041 760.416 156.682 758.723 156.682C757.987 156.682 757.112 157.191 756.098 158.208C752.545 161.194 749.218 162.689 746.117 162.693C738.218 162.693 734.269 156.544 734.273 144.248C734.273 128.681 734.526 118.303 735.033 113.115C735.087 112.045 735.568 111.506 736.471 111.506C737.374 111.506 740.023 111.623 744.425 111.844L748.134 112.031C754.155 112.359 762.29 112.644 764.969 112.776C773.232 113.184 775.411 118.135 775.411 125.254V156.26C775.411 161.733 773.832 166.104 770.676 169.376C770.45 169.601 769.998 170.023 769.321 170.646C768.644 171.27 768.104 171.785 767.712 172.207C767.236 172.756 766.838 173.369 766.529 174.027C766.14 174.787 765.937 175.627 765.936 176.481C765.936 179.582 767.769 181.132 771.436 181.132C773.971 181.132 776.904 181.062 780.234 180.921C783.564 180.781 786.13 180.71 787.933 180.71C789.513 180.71 791.938 180.781 795.209 180.921C798.48 181.062 800.934 181.132 802.569 181.132C806.91 181.132 809.082 179.497 809.086 176.225C809.107 175.267 808.856 174.322 808.359 173.502Z" fill="#532A21"/>
<path fill-rule="evenodd" clip-rule="evenodd" d="M149.608 75.7728C147.435 75.7612 145.329 76.523 143.667 77.922C142.005 79.321 140.894 81.2659 140.535 83.4086C140.463 83.813 140.396 84.233 140.336 84.6683C140.196 85.6754 140.336 86.7018 140.74 87.6347C141.144 88.5677 141.798 89.3712 142.629 89.9572C146.395 92.6235 153.449 89.1225 156.517 86.567C162.211 81.8242 154.443 75.7934 149.608 75.7728Z" fill="#FF871A"/>
<path fill-rule="evenodd" clip-rule="evenodd" d="M108.436 76.9423C111.651 77.3288 113.766 79.789 114.332 82.8469C114.711 84.8769 115.149 87.7854 113.49 89.3955C111.501 91.338 107.111 88.5093 104.927 86.3041C100.47 81.7933 105.159 76.5456 108.436 76.9423Z" fill="#FF871A"/>
<path fill-rule="evenodd" clip-rule="evenodd" d="M111.179 162.839C111.179 162.839 112.74 173.353 121.322 172.436C129.903 171.518 139.924 153.078 139.924 153.078C139.924 153.078 121.574 150.585 111.179 162.839Z" fill="#FE949A"/>
<path fill-rule="evenodd" clip-rule="evenodd" d="M113.879 166.915C113.879 166.915 124.624 159.364 134.692 162.128L140.656 153.467C140.656 153.467 123.238 149.369 111.388 164.094L113.879 166.915Z" fill="#FF525F"/>
<path d="M218.93 144.799C217.994 144.525 216.987 144.634 216.131 145.102C215.275 145.57 214.64 146.359 214.365 147.295C203.872 183.127 170.423 207.538 133.028 206.657C111.826 206.16 91.809 197.54 76.6509 182.387C61.4927 167.234 52.8806 147.215 52.3937 126.013C51.8785 103.539 60.2124 82.3162 75.8961 66.2589C89.5374 52.2974 107.678 43.6113 127.107 41.7377C146.536 39.8641 166.002 44.9237 182.06 56.0213C197.218 66.5243 206.866 83.9521 207.863 102.65C208.277 110.389 206.426 118.082 202.537 124.786C198.648 131.49 192.889 136.916 185.965 140.398L185.69 140.538C183.996 139.665 182.113 139.222 180.208 139.249C178.623 139.252 177.05 139.513 175.55 140.022C172.489 141.053 169.957 142.962 168.427 145.391C167.038 147.588 166.665 149.948 167.368 152.035C168.471 155.307 172.054 157.422 176.498 157.422C178.081 157.419 179.654 157.158 181.153 156.649C186.305 154.915 189.716 150.77 189.688 146.754C197.778 142.583 204.491 136.164 209.019 128.267C213.546 120.371 215.695 111.334 215.207 102.245C214.087 81.3038 203.259 61.761 186.246 49.9724C171.209 39.5369 153.335 33.9624 135.032 34.0002C110.584 34.0002 87.7104 43.6351 70.6278 61.1272C53.5452 78.6194 44.4488 101.712 45.0259 126.186C45.5694 149.289 54.9544 171.096 71.4573 187.591C87.9602 204.086 109.752 213.471 132.855 214.015C133.569 214.03 134.277 214.041 134.986 214.041C174.839 214.041 210.21 187.705 221.429 149.363C221.702 148.427 221.593 147.42 221.124 146.564C220.656 145.708 219.866 145.073 218.93 144.799V144.799Z" fill="#532A21"/>
<path d="M95.6733 110.376L95.2559 110.716C91.4432 113.843 85.6777 118.565 84.8637 124.29C84.2557 128.571 84.6061 131.761 84.9822 135.161C85.1136 136.359 85.2398 137.598 85.3531 138.943C85.6653 143.344 87.6369 147.461 90.8693 150.464C94.1018 153.466 98.3538 155.129 102.765 155.116C103.612 155.115 104.457 155.053 105.295 154.931C105.602 160.165 106.862 168.327 111.509 172.964C112.624 174.092 113.956 174.985 115.423 175.589C116.891 176.192 118.465 176.495 120.052 176.478C120.278 176.478 120.508 176.478 120.737 176.46C136.539 175.661 148.459 149.363 152.207 140.009C152.896 139.978 153.561 139.745 154.118 139.338C154.675 138.931 155.099 138.369 155.338 137.722C155.577 137.074 155.62 136.371 155.461 135.7C155.303 135.029 154.949 134.419 154.446 133.948C151.612 131.276 147.954 130.918 147.55 130.887C146.821 130.826 146.092 130.993 145.463 131.365C144.834 131.737 144.337 132.296 144.041 132.964C143.745 133.632 143.664 134.376 143.81 135.092C143.957 135.808 144.323 136.461 144.857 136.959C132.046 152.893 118.581 149.503 113.851 147.589L113.907 139.832C116.821 137.804 120.716 134.654 123.841 130.539C124.445 129.741 124.846 128.809 125.009 127.822C125.173 126.834 125.095 125.822 124.781 124.872C124.479 123.93 123.946 123.079 123.231 122.395C122.516 121.711 121.642 121.217 120.688 120.956C115.724 119.624 108.322 118.743 99.0635 120.905C98.1455 121.122 97.2926 121.554 96.5757 122.167C95.8588 122.78 95.2986 123.556 94.9416 124.429C94.5747 125.31 94.4168 126.264 94.4802 127.217C94.5437 128.169 94.8268 129.094 95.3074 129.919C97.5461 133.724 101.202 138.252 106.869 141.194L106.825 147.29L106.151 147.522C104.64 148.047 103.029 148.218 101.442 148.02C99.8546 147.822 98.3345 147.261 96.9994 146.38C95.6643 145.499 94.5501 144.323 93.7433 142.942C92.9366 141.561 92.4589 140.013 92.3474 138.417C92.2341 136.939 92.0898 135.64 91.9533 134.386C91.6029 131.196 91.3247 128.674 91.8064 125.271C92.2367 122.257 97.0902 118.279 99.6972 116.141L100.122 115.796C101.434 114.719 102.598 113.771 103.708 112.87C105.826 111.149 107.83 109.521 110.205 107.506C110.691 107.099 111.057 106.568 111.265 105.97C111.473 105.372 111.516 104.728 111.388 104.108C111.388 104.054 111.388 104.002 111.388 103.948C111.159 99.1875 107.887 92.0979 99.7951 92.0979C91.6338 92.0979 88.5785 99.713 88.1071 103.742C88.0494 104.234 88.089 104.731 88.2238 105.208C88.3586 105.684 88.5858 106.128 88.8924 106.517C89.1991 106.905 89.5793 107.229 90.0112 107.47C90.4431 107.712 90.9183 107.866 91.4097 107.923C91.9011 107.981 92.399 107.941 92.8751 107.807C93.3512 107.672 93.796 107.445 94.1843 107.138C94.5725 106.831 94.8966 106.451 95.1379 106.019C95.3792 105.587 95.5331 105.112 95.5908 104.621C95.5908 104.572 96.2194 99.6332 99.7977 99.6332C102.796 99.6332 103.585 102.307 103.793 103.732C102.261 105.004 100.849 106.153 99.2876 107.424C98.1721 108.335 96.9974 109.291 95.6733 110.376ZM136.276 155.742C131.59 163.007 125.956 169.169 120.386 169.45C119.666 169.515 118.941 169.419 118.263 169.167C117.585 168.916 116.971 168.516 116.468 167.997C115.476 167.01 114.706 165.632 114.113 164.063C117.383 160.451 124.49 154.758 136.279 155.742H136.276Z" fill="#532A21"/>
<path d="M164.843 99.2185C169.702 99.5612 170.769 104.574 170.861 105.113C170.926 105.637 171.097 106.143 171.363 106.6C171.629 107.057 171.984 107.456 172.408 107.772C172.831 108.088 173.314 108.315 173.828 108.44C174.342 108.564 174.875 108.584 175.397 108.497C175.918 108.41 176.417 108.218 176.862 107.934C177.308 107.649 177.691 107.278 177.989 106.841C178.288 106.405 178.495 105.913 178.598 105.394C178.701 104.876 178.698 104.342 178.59 103.825C177.925 99.7982 174.311 92.013 165.387 91.3844C154.224 90.5884 149.312 99.301 148.729 105.347C148.63 106.375 148.942 107.4 149.597 108.198C150.251 108.996 151.196 109.502 152.223 109.606C152.36 109.621 152.497 109.629 152.635 109.629C153.6 109.624 154.53 109.265 155.249 108.621C155.967 107.976 156.424 107.09 156.533 106.13C156.728 104.394 157.934 98.7368 164.843 99.2185Z" fill="#532A21"/>
</svg>
